<?xml version="1.0" encoding="UTF-8"?>
<svg xmlns="http://www.w3.org/2000/svg" width="1280" height="720" viewBox="0 0 1280 720">
  <defs>
    <linearGradient id="bg" x1="0%" y1="0%" x2="100%" y2="100%">
      <stop offset="0%" style="stop-color:#0a0a0a"/>
      <stop offset="35%" style="stop-color:#0C1A26"/>
      <stop offset="100%" style="stop-color:#1a1a2e"/>
    </linearGradient>
    <linearGradient id="nv-green" x1="0%" y1="0%" x2="100%" y2="100%">
      <stop offset="0%" style="stop-color:#76B900"/>
      <stop offset="100%" style="stop-color:#5a9e00"/>
    </linearGradient>
    <linearGradient id="accent" x1="0%" y1="0%" x2="100%" y2="0%">
      <stop offset="0%" style="stop-color:#F4C542"/>
      <stop offset="100%" style="stop-color:#2E6DB4"/>
    </linearGradient>
    <linearGradient id="python-grad" x1="0%" y1="0%" x2="100%" y2="100%">
      <stop offset="0%" style="stop-color:#3776AB"/>
      <stop offset="100%" style="stop-color:#FFD43B"/>
    </linearGradient>
    <radialGradient id="glow-blue" cx="50%" cy="50%" r="50%">
      <stop offset="0%" style="stop-color:#3776AB;stop-opacity:0.25"/>
      <stop offset="100%" style="stop-color:#3776AB;stop-opacity:0"/>
    </radialGradient>
    <radialGradient id="glow-yellow" cx="50%" cy="50%" r="50%">
      <stop offset="0%" style="stop-color:#FFD43B;stop-opacity:0.12"/>
      <stop offset="100%" style="stop-color:#FFD43B;stop-opacity:0"/>
    </radialGradient>
    <pattern id="grid" width="40" height="40" patternUnits="userSpaceOnUse">
      <rect width="40" height="40" fill="none"/>
      <path d="M 40 0 L 0 0 0 40" fill="none" stroke="#76B900" stroke-width="0.3" opacity="0.12"/>
    </pattern>
  </defs>

  <!-- Background -->
  <rect width="1280" height="720" fill="url(#bg)"/>
  <rect width="1280" height="720" fill="url(#grid)"/>

  <!-- Ambient glows -->
  <ellipse cx="1000" cy="350" rx="350" ry="280" fill="url(#glow-blue)"/>
  <ellipse cx="250" cy="500" rx="280" ry="220" fill="url(#glow-yellow)"/>

  <!-- Top accent bar -->
  <rect x="0" y="0" width="1280" height="4" fill="url(#accent)"/>

  <!-- Python code snippet illustration (right side) -->
  <g transform="translate(780, 130)" opacity="0.55">
    <!-- Terminal window -->
    <rect x="0" y="0" width="420" height="430" rx="12" fill="rgba(0,0,0,0.5)" stroke="#3776AB" stroke-width="1.5"/>
    <!-- Title bar -->
    <rect x="0" y="0" width="420" height="30" rx="12" fill="rgba(55,118,171,0.3)"/>
    <rect x="0" y="15" width="420" height="15" fill="rgba(55,118,171,0.3)"/>
    <circle cx="18" cy="15" r="5" fill="#ff5f56"/>
    <circle cx="36" cy="15" r="5" fill="#ffbd2e"/>
    <circle cx="54" cy="15" r="5" fill="#27c93f"/>
    <text x="210" y="19" text-anchor="middle" fill="#A8B3C3" font-family="monospace" font-size="11">cuda_python.py</text>
    <!-- Code lines -->
    <g font-family="monospace" font-size="13">
      <text x="15" y="55" fill="#c586c0">import</text><text x="72" y="55" fill="#4fc1ff"> cupy </text><text x="120" y="55" fill="#c586c0">as</text><text x="138" y="55" fill="#4fc1ff"> cp</text>
      <text x="15" y="75" fill="#c586c0">import</text><text x="72" y="75" fill="#4fc1ff"> torch</text>
      <text x="15" y="95" fill="#c586c0">from</text><text x="52" y="95" fill="#4fc1ff"> numba </text><text x="110" y="95" fill="#c586c0">import</text><text x="167" y="95" fill="#4fc1ff"> cuda</text>
      <text x="15" y="125" fill="#6A9955"># CuPy — NumPy on GPU</text>
      <text x="15" y="145" fill="#9cdcfe">x</text><text x="26" y="145" fill="#d4d4d4"> = </text><text x="44" y="145" fill="#4fc1ff">cp</text><text x="57" y="145" fill="#d4d4d4">.</text><text x="63" y="145" fill="#dcdcaa">random.randn</text><text x="155" y="145" fill="#d4d4d4">(</text><text x="162" y="145" fill="#b5cea8">1000</text><text x="194" y="145" fill="#d4d4d4">,</text><text x="201" y="145" fill="#b5cea8">1000</text><text x="233" y="145" fill="#d4d4d4">)</text>
      <text x="15" y="165" fill="#9cdcfe">y</text><text x="26" y="165" fill="#d4d4d4"> = </text><text x="44" y="165" fill="#4fc1ff">cp</text><text x="57" y="165" fill="#d4d4d4">.</text><text x="63" y="165" fill="#dcdcaa">dot</text><text x="89" y="165" fill="#d4d4d4">(</text><text x="95" y="165" fill="#9cdcfe">x</text><text x="103" y="165" fill="#d4d4d4">,</text><text x="111" y="165" fill="#9cdcfe">x</text><text x="119" y="165" fill="#d4d4d4">.</text><text x="125" y="165" fill="#9cdcfe">T</text><text x="133" y="165" fill="#d4d4d4">)</text>
      <text x="15" y="195" fill="#6A9955"># PyTorch CUDA</text>
      <text x="15" y="215" fill="#9cdcfe">t</text><text x="26" y="215" fill="#d4d4d4"> = </text><text x="44" y="215" fill="#4fc1ff">torch</text><text x="80" y="215" fill="#d4d4d4">.</text><text x="86" y="215" fill="#dcdcaa">randn</text><text x="123" y="215" fill="#d4d4d4">(</text><text x="130" y="215" fill="#b5cea8">256</text><text x="152" y="215" fill="#d4d4d4">,</text><text x="159" y="215" fill="#b5cea8">256</text><text x="181" y="215" fill="#d4d4d4">)</text>
      <text x="15" y="235" fill="#9cdcfe">t_gpu</text><text x="55" y="235" fill="#d4d4d4"> = </text><text x="70" y="235" fill="#9cdcfe">t</text><text x="78" y="235" fill="#d4d4d4">.</text><text x="84" y="235" fill="#dcdcaa">cuda</text><text x="114" y="235" fill="#d4d4d4">()</text>
      <text x="15" y="265" fill="#6A9955"># Numba CUDA kernel</text>
      <text x="15" y="285" fill="#dcdcaa">@cuda.jit</text>
      <text x="15" y="305" fill="#c586c0">def</text><text x="40" y="305" fill="#dcdcaa"> vector_add</text><text x="135" y="305" fill="#d4d4d4">(</text><text x="142" y="305" fill="#9cdcfe">a, b, c</text><text x="193" y="305" fill="#d4d4d4">):</text>
      <text x="30" y="325" fill="#9cdcfe">    idx</text><text x="72" y="325" fill="#d4d4d4"> = </text><text x="90" y="325" fill="#4fc1ff">cuda</text><text x="120" y="325" fill="#d4d4d4">.</text><text x="126" y="325" fill="#dcdcaa">grid</text><text x="152" y="325" fill="#d4d4d4">(</text><text x="158" y="325" fill="#b5cea8">1</text><text x="165" y="325" fill="#d4d4d4">)</text>
      <text x="30" y="345" fill="#9cdcfe">    c</text><text x="50" y="345" fill="#d4d4d4">[</text><text x="56" y="345" fill="#9cdcfe">idx</text><text x="78" y="345" fill="#d4d4d4">] = </text><text x="98" y="345" fill="#9cdcfe">a</text><text x="106" y="345" fill="#d4d4d4">[</text><text x="112" y="345" fill="#9cdcfe">idx</text><text x="134" y="345" fill="#d4d4d4">] + </text><text x="156" y="345" fill="#9cdcfe">b</text><text x="164" y="345" fill="#d4d4d4">[</text><text x="170" y="345" fill="#9cdcfe">idx</text><text x="192" y="345" fill="#d4d4d4">]</text>
    </g>
  </g>

  <!-- Python logo (stylized) next to NVIDIA -->
  <g transform="translate(870, 40)">
    <circle cx="0" cy="0" r="14" fill="#3776AB"/>
    <circle cx="10" cy="10" r="14" fill="#FFD43B"/>
    <text x="5" y="8" text-anchor="middle" fill="#0a0a0a" font-family="Arial, sans-serif" font-size="12" font-weight="bold">Py</text>
  </g>

  <!-- NVIDIA Logo (top-right) -->
  <g transform="translate(1080, 35)">
    <rect x="-8" y="-8" width="170" height="46" rx="8" fill="rgba(0,0,0,0.5)"/>
    <g transform="scale(0.28)" fill="#76B900">
      <path d="M61.3 18.5c-0.4 0-0.7 0-1.1 0.1V9.2C42.6 10.8 30.3 24.1 30.3 40c0 0.6 0 1.2 0.1 1.7l7.3-0.1c-0.1-0.5-0.1-1.1-0.1-1.6 0-11.7 8.5-21.4 19.7-23.3v8.6c-6.5 1.8-11.3 7.7-11.3 14.7 0 8.5 6.9 15.3 15.3 15.3 8.5 0 15.3-6.9 15.3-15.3 0-0.6 0-1.2-0.1-1.7h7.3c0.1 0.6 0.1 1.2 0.1 1.7 0 12.5-10.1 22.7-22.7 22.7S38.5 52.5 38.5 40c0-10.8 7.6-19.8 17.7-22v-8.6c-14.5 2.3-25.6 15-25.6 30.1 0 16.8 13.7 30.5 30.5 30.5S91.6 56.3 91.6 40c0-15.1-11-27.8-25.5-30.1v9.3c0.2 0 0.4 0 0.5 0 11.5 0 20.8 9.3 20.8 20.8S78.1 60.8 66.6 60.8 45.8 51.5 45.8 40c0-8.4 5-15.7 12.2-18.9v-8.8c-11.4 3.5-19.7 14.1-19.7 26.7 0 15.4 12.5 27.9 27.9 27.9S94.1 54.4 94.1 40c0-0.6 0-1.2-0.1-1.7h7.3c0.1 0.6 0.1 1.2 0.1 1.7 0 17.7-14.3 32-32 32s-32-14.3-32-32c0-17.7 14.3-32 32-32 0.4 0 0.7 0 1.1 0v-0.1c-0.4 0-0.7 0-1.1 0z"/>
    </g>
    <text x="30" y="22" fill="#76B900" font-family="Arial, sans-serif" font-size="22" font-weight="bold" letter-spacing="2">NVIDIA</text>
    <text x="30" y="32" fill="#76B900" font-family="Arial, sans-serif" font-size="8" letter-spacing="3" opacity="0.7">CUDA</text>
  </g>

  <!-- SIMG branding (top-left) -->
  <g transform="translate(50, 40)">
    <text x="0" y="0" fill="#F4C542" font-family="Arial, sans-serif" font-size="24" font-weight="bold" letter-spacing="4">SIMG</text>
    <text x="0" y="18" fill="#A8B3C3" font-family="Arial, sans-serif" font-size="10" letter-spacing="1">SEMILLERO DE INVESTIGACIÓN</text>
  </g>

  <!-- Lecture number badge -->
  <g transform="translate(50, 110)">
    <rect x="0" y="0" width="120" height="36" rx="18" fill="#76B900"/>
    <text x="60" y="24" text-anchor="middle" fill="#0a0a0a" font-family="Arial, sans-serif" font-size="14" font-weight="bold" letter-spacing="1">LECTURE 2</text>
  </g>

  <!-- Event type badge -->
  <g transform="translate(185, 110)">
    <rect x="0" y="0" width="120" height="36" rx="18" fill="none" stroke="#2E6DB4" stroke-width="1.5"/>
    <text x="60" y="24" text-anchor="middle" fill="#93c5fd" font-family="Arial, sans-serif" font-size="12" font-weight="bold" letter-spacing="1">IN-PERSON</text>
  </g>

  <!-- Main title -->
  <text x="50" y="210" fill="#FFFFFF" font-family="Arial, sans-serif" font-size="46" font-weight="bold">CUDA For Python:</text>
  <text x="50" y="268" fill="#FFD43B" font-family="Arial, sans-serif" font-size="44" font-weight="bold">CuPy, torch.cuda</text>
  <text x="50" y="326" fill="#F4C542" font-family="Arial, sans-serif" font-size="44" font-weight="bold">&amp; cuda.jit (Numba)</text>

  <!-- Topics list -->
  <g transform="translate(50, 380)" fill="#A8B3C3" font-family="Arial, sans-serif" font-size="16">
    <circle cx="8" cy="-5" r="3" fill="#3776AB"/>
    <text x="20" y="0">CuPy — NumPy on GPU</text>
    <circle cx="8" cy="25" r="3" fill="#FFD43B"/>
    <text x="20" y="30">PyTorch torch.cuda Operations</text>
    <circle cx="8" cy="55" r="3" fill="#76B900"/>
    <text x="20" y="60">Numba @cuda.jit Kernels</text>
    <circle cx="8" cy="85" r="3" fill="#F4C542"/>
    <text x="20" y="90">GPU Memory Management in Python</text>
  </g>

  <!-- Bottom bar -->
  <rect x="0" y="680" width="1280" height="40" fill="rgba(0,0,0,0.6)"/>
  <rect x="0" y="678" width="1280" height="2" fill="url(#accent)"/>

  <!-- Date & location in bottom bar -->
  <g font-family="Arial, sans-serif">
    <text x="50" y="706" fill="#F4C542" font-size="15" font-weight="bold">Mar 6, 2026</text>
    <text x="195" y="706" fill="#A8B3C3" font-size="14">|</text>
    <text x="215" y="706" fill="#A8B3C3" font-size="14">2:00 – 4:00 PM</text>
    <text x="375" y="706" fill="#A8B3C3" font-size="14">|</text>
    <text x="395" y="706" fill="#A8B3C3" font-size="14">Building 404 – Yu Takeuchi, Room 202-405</text>
  </g>

  <!-- Turtle + UNAL (bottom-right) -->
  <g transform="translate(1100, 688)">
    <text x="0" y="18" fill="#E6E9EF" font-family="Arial, sans-serif" font-size="11" opacity="0.6">🐢 UNAL</text>
  </g>

  <!-- Bottom accent bar -->
  <rect x="0" y="716" width="1280" height="4" fill="url(#nv-green)"/>
</svg>
