<?xml version="1.0" encoding="UTF-8"?>
<svg xmlns="http://www.w3.org/2000/svg" width="1280" height="720" viewBox="0 0 1280 720">
  <defs>
    <linearGradient id="bg" x1="0%" y1="0%" x2="100%" y2="100%">
      <stop offset="0%" style="stop-color:#0a0a0a"/>
      <stop offset="50%" style="stop-color:#0C1A26"/>
      <stop offset="100%" style="stop-color:#1a1a2e"/>
    </linearGradient>
    <linearGradient id="nv-green" x1="0%" y1="0%" x2="100%" y2="100%">
      <stop offset="0%" style="stop-color:#76B900"/>
      <stop offset="100%" style="stop-color:#5a9e00"/>
    </linearGradient>
    <linearGradient id="accent" x1="0%" y1="0%" x2="100%" y2="0%">
      <stop offset="0%" style="stop-color:#F4C542"/>
      <stop offset="100%" style="stop-color:#2E6DB4"/>
    </linearGradient>
    <pattern id="grid" width="40" height="40" patternUnits="userSpaceOnUse">
      <rect width="40" height="40" fill="none"/>
      <path d="M 40 0 L 0 0 0 40" fill="none" stroke="#76B900" stroke-width="0.3" opacity="0.1"/>
    </pattern>
  </defs>

  <!-- Background -->
  <rect width="1280" height="720" fill="url(#bg)"/>
  <rect width="1280" height="720" fill="url(#grid)"/>

  <!-- Top accent bar -->
  <rect x="0" y="0" width="1280" height="4" fill="url(#accent)"/>

  <!-- NVIDIA Logo (top-right) -->
  <g transform="translate(1080, 35)">
    <rect x="-8" y="-8" width="170" height="46" rx="8" fill="rgba(0,0,0,0.5)"/>
    <text x="30" y="22" fill="#76B900" font-family="Arial, sans-serif" font-size="22" font-weight="bold" letter-spacing="2">NVIDIA</text>
    <text x="30" y="32" fill="#76B900" font-family="Arial, sans-serif" font-size="8" letter-spacing="3" opacity="0.7">CUDA PLATFORM</text>
  </g>

  <!-- SIMG branding (top-left) -->
  <g transform="translate(50, 40)">
    <text x="0" y="0" fill="#F4C542" font-family="Arial, sans-serif" font-size="24" font-weight="bold" letter-spacing="4">SIMG</text>
    <text x="0" y="18" fill="#A8B3C3" font-family="Arial, sans-serif" font-size="10" letter-spacing="1">SEMILLERO DE INVESTIGACION</text>
  </g>

  <!-- Lecture number badge -->
  <g transform="translate(50, 110)">
    <rect x="0" y="0" width="120" height="36" rx="18" fill="#76B900"/>
    <text x="60" y="24" text-anchor="middle" fill="#0a0a0a" font-family="Arial, sans-serif" font-size="14" font-weight="bold" letter-spacing="1">LECTURE 1</text>
  </g>

  <!-- Event type badge -->
  <g transform="translate(185, 110)">
    <rect x="0" y="0" width="120" height="36" rx="18" fill="none" stroke="#2E6DB4" stroke-width="1.5"/>
    <text x="60" y="24" text-anchor="middle" fill="#93c5fd" font-family="Arial, sans-serif" font-size="12" font-weight="bold" letter-spacing="1">IN-PERSON</text>
  </g>

  <!-- GPU Architecture Illustration (right side) -->
  <g transform="translate(720, 120)" opacity="0.7">
    <!-- GPU Card -->
    <rect x="0" y="0" width="480" height="260" rx="12" fill="rgba(118,185,0,0.1)" stroke="#76B900" stroke-width="2"/>
    <text x="240" y="25" text-anchor="middle" fill="#76B900" font-family="Arial, sans-serif" font-size="16" font-weight="bold">GPU ARCHITECTURE</text>
    
    <!-- SM Grid (4x4) -->
    <g transform="translate(40, 50)">
      <!-- Row 1 -->
      <rect x="0" y="0" width="90" height="40" rx="4" fill="#76B900" opacity="0.8"/>
      <text x="45" y="25" text-anchor="middle" fill="#000" font-family="Arial, sans-serif" font-size="10" font-weight="bold">SM 0</text>
      <rect x="100" y="0" width="90" height="40" rx="4" fill="#76B900" opacity="0.8"/>
      <text x="145" y="25" text-anchor="middle" fill="#000" font-family="Arial, sans-serif" font-size="10" font-weight="bold">SM 1</text>
      <rect x="200" y="0" width="90" height="40" rx="4" fill="#76B900" opacity="0.8"/>
      <text x="245" y="25" text-anchor="middle" fill="#000" font-family="Arial, sans-serif" font-size="10" font-weight="bold">SM 2</text>
      <rect x="300" y="0" width="90" height="40" rx="4" fill="#76B900" opacity="0.8"/>
      <text x="345" y="25" text-anchor="middle" fill="#000" font-family="Arial, sans-serif" font-size="10" font-weight="bold">SM 3</text>
      
      <!-- Row 2 -->
      <rect x="0" y="50" width="90" height="40" rx="4" fill="#76B900" opacity="0.8"/>
      <text x="45" y="75" text-anchor="middle" fill="#000" font-family="Arial, sans-serif" font-size="10" font-weight="bold">SM 4</text>
      <rect x="100" y="50" width="90" height="40" rx="4" fill="#76B900" opacity="0.8"/>
      <text x="145" y="75" text-anchor="middle" fill="#000" font-family="Arial, sans-serif" font-size="10" font-weight="bold">SM 5</text>
      <rect x="200" y="50" width="90" height="40" rx="4" fill="#76B900" opacity="0.8"/>
      <text x="245" y="75" text-anchor="middle" fill="#000" font-family="Arial, sans-serif" font-size="10" font-weight="bold">SM 6</text>
      <rect x="300" y="50" width="90" height="40" rx="4" fill="#76B900" opacity="0.8"/>
      <text x="345" y="75" text-anchor="middle" fill="#000" font-family="Arial, sans-serif" font-size="10" font-weight="bold">SM 7</text>
      
      <!-- Row 3 -->
      <rect x="0" y="100" width="90" height="40" rx="4" fill="#76B900" opacity="0.8"/>
      <text x="45" y="125" text-anchor="middle" fill="#000" font-family="Arial, sans-serif" font-size="10" font-weight="bold">SM 8</text>
      <rect x="100" y="100" width="90" height="40" rx="4" fill="#76B900" opacity="0.8"/>
      <text x="145" y="125" text-anchor="middle" fill="#000" font-family="Arial, sans-serif" font-size="10" font-weight="bold">SM 9</text>
      <rect x="200" y="100" width="90" height="40" rx="4" fill="#76B900" opacity="0.8"/>
      <text x="245" y="125" text-anchor="middle" fill="#000" font-family="Arial, sans-serif" font-size="10" font-weight="bold">SM 10</text>
      <rect x="300" y="100" width="90" height="40" rx="4" fill="#76B900" opacity="0.8"/>
      <text x="345" y="125" text-anchor="middle" fill="#000" font-family="Arial, sans-serif" font-size="10" font-weight="bold">SM 11</text>
      
      <!-- Memory bus lines -->
      <g stroke="#F4C542" stroke-width="2" opacity="0.6">
        <line x1="45" y1="150" x2="45" y2="170"/>
        <line x1="145" y1="150" x2="145" y2="170"/>
        <line x1="245" y1="150" x2="245" y2="170"/>
        <line x1="345" y1="150" x2="345" y2="170"/>
      </g>
    </g>
    
    <!-- Global Memory -->
    <rect x="40" y="230" width="400" height="20" rx="4" fill="#F4C542" opacity="0.8"/>
    <text x="240" y="245" text-anchor="middle" fill="#000" font-family="Arial, sans-serif" font-size="12" font-weight="bold">GLOBAL MEMORY</text>
  </g>

  <!-- Main title -->
  <text x="50" y="210" fill="#FFFFFF" font-family="Arial, sans-serif" font-size="46" font-weight="bold">GPU Programming</text>
  <text x="50" y="268" fill="#FFFFFF" font-family="Arial, sans-serif" font-size="46" font-weight="bold">Model &amp; Architecture</text>
  <text x="50" y="326" fill="#F4C542" font-family="Arial, sans-serif" font-size="44" font-weight="bold">Memory Layout</text>

  <!-- Topics list -->
  <g transform="translate(50, 380)" fill="#A8B3C3" font-family="Arial, sans-serif" font-size="16">
    <circle cx="8" cy="-5" r="3" fill="#76B900"/>
    <text x="20" y="0">CUDA Programming Model</text>
    <circle cx="8" cy="25" r="3" fill="#F4C542"/>
    <text x="20" y="30">GPU Hardware Architecture</text>
    <circle cx="8" cy="55" r="3" fill="#2E6DB4"/>
    <text x="20" y="60">Memory Hierarchy (Global, Shared, Local)</text>
    <circle cx="8" cy="85" r="3" fill="#76B900"/>
    <text x="20" y="90">CPU-GPU Data Transfer</text>
  </g>

  <!-- Bottom bar -->
  <rect x="0" y="680" width="1280" height="40" fill="rgba(0,0,0,0.6)"/>
  <rect x="0" y="678" width="1280" height="2" fill="url(#accent)"/>

  <!-- Date & location in bottom bar -->
  <g font-family="Arial, sans-serif">
    <text x="50" y="706" fill="#F4C542" font-size="15" font-weight="bold">Feb 27, 2026</text>
    <text x="200" y="706" fill="#A8B3C3" font-size="14">|</text>
    <text x="220" y="706" fill="#A8B3C3" font-size="14">2:00 – 4:00 PM</text>
    <text x="380" y="706" fill="#A8B3C3" font-size="14">|</text>
    <text x="400" y="706" fill="#A8B3C3" font-size="14">Building 404 – Yu Takeuchi, Room 202-405</text>
  </g>

  <!-- Turtle + UNAL (bottom-right) -->
  <g transform="translate(1100, 688)">
    <text x="0" y="18" fill="#E6E9EF" font-family="Arial, sans-serif" font-size="11" opacity="0.6">🐢 UNAL</text>
  </g>

  <!-- Bottom accent bar -->
  <rect x="0" y="716" width="1280" height="4" fill="url(#nv-green)"/>
</svg>