<?xml version="1.0" standalone="no"?>
<!DOCTYPE svg PUBLIC "-//W3C//DTD SVG 20010904//EN"
 "http://www.w3.org/TR/2001/REC-SVG-20010904/DTD/svg10.dtd">
<svg version="1.0" xmlns="http://www.w3.org/2000/svg"
 width="389.000000pt" height="389.000000pt" viewBox="0 0 389.000000 389.000000"
 preserveAspectRatio="xMidYMid meet">

<g transform="translate(0.000000,389.000000) scale(0.100000,-0.100000)"
fill="#000000" stroke="none">
<path d="M100 3178 l0 -623 58 0 c65 0 115 -20 152 -61 14 -15 18 -24 10 -20
-8 4 0 -6 18 -23 52 -50 90 -120 94 -176 2 -35 -1 -50 -10 -50 -7 0 -21 -15
-33 -34 -19 -31 -19 -34 -3 -46 9 -6 14 -17 10 -23 -10 -16 -22 -15 -41 4 -14
15 -17 14 -35 -9 -22 -28 -72 -61 -110 -72 -22 -7 -23 -6 -8 9 9 9 21 16 27
16 18 0 81 61 80 79 0 12 -3 10 -11 -6 -16 -34 -102 -66 -154 -58 -36 5 -44 3
-44 -9 0 -11 9 -16 29 -16 17 0 32 -4 36 -9 3 -5 -10 -8 -30 -6 -31 3 -35 0
-35 -21 0 -19 5 -24 25 -24 14 0 25 -5 25 -10 0 -6 -11 -8 -25 -4 l-25 6 0
-121 0 -121 38 0 c27 0 33 -3 22 -10 -8 -5 -25 -10 -37 -10 -23 0 -23 -1 -23
-159 0 -113 4 -162 12 -167 6 -4 14 -2 16 4 2 7 9 12 15 12 8 0 7 -4 -1 -12
-7 -7 -12 -16 -12 -22 0 -6 5 -5 12 2 7 7 21 12 33 13 20 0 20 0 0 10 -15 7
-12 8 15 4 19 -3 46 -7 60 -8 14 -1 30 -5 36 -9 16 -10 75 2 68 13 -3 5 0 9 5
9 6 0 11 -5 11 -11 0 -7 18 -10 50 -7 28 1 50 -1 50 -5 0 -5 4 -6 9 -3 5 4 19
2 31 -2 17 -6 7 -9 -36 -11 -33 -1 -70 -3 -84 -5 -14 -1 -29 0 -33 2 -13 7
-140 10 -164 5 -40 -9 -26 -26 16 -19 37 6 111 -15 111 -31 0 -3 -31 -3 -68 0
-38 3 -87 3 -110 0 l-42 -6 0 -68 c0 -38 4 -69 8 -69 16 0 125 40 137 50 6 5
14 7 18 4 3 -3 18 1 34 10 15 8 24 15 19 16 -5 0 -3 7 4 15 8 10 30 15 61 15
52 0 62 -12 32 -37 -16 -13 -14 -14 21 -9 38 5 74 -6 88 -28 5 -8 11 -7 20 2
14 14 52 16 43 2 -9 -15 7 -12 29 5 24 18 105 19 191 4 33 -6 65 -11 72 -11 7
-1 16 -14 22 -29 10 -29 -3 -34 -30 -13 -39 30 -240 48 -264 25 -6 -6 -37 -14
-70 -19 -67 -11 -145 -40 -145 -53 0 -5 -11 -9 -25 -9 -14 0 -25 -3 -25 -8 0
-14 -118 -72 -134 -66 -9 3 -13 10 -10 15 3 5 -5 9 -18 9 -13 0 -29 4 -37 9
-16 11 75 42 180 62 35 6 69 16 74 21 6 6 -1 7 -20 4 -23 -4 -34 -1 -46 16
l-17 21 2 -24 c1 -21 -3 -24 -29 -23 -29 2 -57 -4 -145 -26 -37 -10 -40 -14
-40 -44 0 -32 4 -35 72 -66 89 -39 193 -106 253 -161 55 -51 67 -48 19 5 -19
21 -33 40 -30 43 4 5 88 -35 96 -46 3 -4 37 -25 75 -46 39 -21 72 -42 73 -47
2 -4 10 -8 18 -8 9 0 13 -4 10 -9 -3 -5 1 -14 9 -21 10 -9 15 -9 15 -1 0 6 4
11 9 11 9 0 161 -106 199 -140 13 -11 30 -20 37 -20 7 0 18 -7 25 -15 9 -11 9
-15 1 -15 -7 0 -9 -5 -5 -12 5 -8 0 -9 -17 -5 l-24 6 25 -19 c14 -11 28 -20
33 -20 4 0 7 -5 7 -12 0 -16 33 -51 124 -132 51 -45 75 -78 44 -60 -7 4 -4 -2
6 -14 11 -12 23 -22 28 -22 11 0 99 -60 110 -75 5 -6 8 -4 8 5 0 10 3 11 8 4
4 -6 22 -19 40 -28 18 -9 42 -25 52 -34 38 -35 51 -44 56 -39 7 7 -161 137
-176 137 -6 0 -9 4 -5 9 3 5 0 13 -6 17 -8 4 -9 3 -5 -4 4 -7 1 -12 -9 -12 -9
0 -13 5 -10 10 9 15 -14 40 -31 33 -8 -3 -14 1 -14 9 0 7 -45 53 -100 102 -55
49 -98 91 -95 94 2 3 11 -1 20 -8 10 -8 15 -9 15 -2 0 6 -9 16 -20 22 -11 6
-20 14 -20 19 0 4 35 -9 77 -29 83 -40 168 -71 193 -72 36 0 124 -28 142 -45
20 -18 20 -17 14 3 -6 21 -6 21 46 6 29 -8 71 -18 93 -22 22 -4 34 -8 27 -9
-8 -1 -4 -10 10 -24 15 -15 31 -22 46 -19 l23 4 -23 17 c-13 9 -26 15 -30 13
-5 -1 -8 3 -8 9 0 12 120 3 134 -11 5 -5 15 -6 24 -3 10 4 13 2 8 -5 -4 -7 0
-14 11 -18 10 -3 38 -15 63 -27 71 -34 80 -37 80 -27 0 5 -18 16 -40 26 -22
10 -40 21 -40 25 0 11 29 19 47 12 10 -4 14 -2 9 5 -8 13 10 18 84 27 30 4 82
19 114 33 42 19 61 23 64 14 4 -14 38 -16 46 -3 4 5 -3 7 -14 4 -11 -3 -20 -1
-20 4 0 5 27 15 61 22 49 11 63 11 69 1 6 -9 18 -7 53 8 33 15 47 17 51 9 5
-9 8 -9 12 1 14 30 201 4 272 -39 20 -12 62 -36 92 -54 30 -17 69 -39 85 -49
25 -15 26 -15 8 -1 -13 10 -23 23 -23 30 0 7 -13 18 -30 25 -16 7 -34 18 -40
25 -6 8 -17 12 -24 9 -8 -3 -16 2 -20 11 -5 13 -2 15 16 9 12 -3 35 -15 52
-25 18 -11 50 -19 76 -19 33 0 41 -3 30 -10 -10 -7 17 -9 85 -8 l100 2 -85 6
c-47 3 -74 7 -60 8 53 5 45 17 -11 18 -32 0 -62 4 -66 8 -14 13 34 35 77 36
25 0 82 9 128 20 46 11 96 20 111 20 15 0 32 5 38 11 6 6 17 9 25 6 9 -4 5 -8
-9 -12 -32 -10 -29 -29 2 -21 26 7 35 -8 13 -18 -7 -3 23 -4 66 0 44 3 88 10
99 15 10 6 57 12 103 14 65 3 95 9 131 28 27 14 63 30 81 37 17 7 32 16 32 21
0 12 -39 3 -115 -26 -33 -13 -103 -29 -155 -35 -52 -7 -120 -15 -151 -19 -64
-8 -80 -5 -73 14 7 17 24 20 179 40 157 20 315 62 315 85 0 16 -33 12 -75 -11
-26 -14 -62 -22 -100 -24 -108 -4 -239 -22 -400 -55 -50 -11 -185 -7 -205 5
-5 3 -10 12 -10 18 0 9 26 12 87 11 54 -1 80 1 68 6 -11 5 -15 9 -8 9 6 1 19
4 29 8 11 4 15 2 11 -4 -4 -6 4 -8 21 -5 19 4 22 7 10 10 -10 2 -18 7 -18 12
0 12 -59 3 -78 -12 -13 -11 -14 -11 -8 0 6 10 0 12 -27 7 -26 -5 -36 -3 -40 8
-6 16 6 19 124 32 32 3 70 10 85 15 29 8 29 8 4 10 -14 1 9 8 49 15 41 8 78
12 81 10 17 -10 80 -5 135 10 33 9 70 17 83 17 12 0 22 4 22 9 0 5 5 9 11 9 5
0 7 -6 3 -12 -6 -10 -4 -10 7 -1 7 7 24 13 37 13 13 0 20 4 17 10 -3 5 15 15
40 21 42 11 45 13 45 45 0 34 -14 46 -23 22 -4 -10 -6 -10 -6 0 -1 8 -6 10
-14 5 -6 -4 -21 -8 -32 -9 -11 -1 1 7 28 19 47 21 47 21 47 69 0 40 -3 48 -19
48 -10 0 -31 -10 -46 -22 -34 -26 -87 -54 -134 -69 -20 -7 -39 -17 -43 -22 -7
-12 -51 -18 -117 -18 -35 1 -41 -2 -32 -13 9 -10 8 -15 -5 -20 -23 -9 -24 -8
-17 10 5 13 2 15 -14 10 -11 -4 -31 -2 -44 2 -21 8 -12 13 64 37 49 15 91 25
94 22 3 -4 11 0 19 7 7 7 31 16 53 20 26 4 41 12 41 21 0 20 21 30 31 14 6
-10 9 -11 9 -1 0 6 6 12 14 12 7 0 16 10 19 21 4 16 11 20 26 16 11 -3 25 1
32 9 6 8 15 11 20 8 19 -11 49 7 49 31 0 22 -2 22 -29 12 -17 -6 -27 -15 -24
-20 3 -5 -4 -6 -15 -3 -11 4 -23 3 -26 -3 -3 -5 -40 -23 -82 -41 -58 -24 -83
-30 -107 -24 -19 4 -26 9 -17 12 8 3 52 22 97 43 46 22 85 39 87 39 25 0 116
44 116 56 0 17 -9 15 -99 -17 -50 -18 -82 -18 -52 0 11 7 11 10 0 14 -8 3 -3
6 10 6 13 1 50 13 82 27 l59 27 0 85 c0 84 0 85 -20 67 -10 -9 -40 -28 -66
-41 -44 -22 -48 -23 -61 -6 -12 15 -13 13 -11 -17 4 -47 -19 -61 -58 -34 -16
11 -60 37 -97 58 -38 20 -71 43 -74 51 -3 9 -12 13 -20 10 -8 -3 -32 8 -54 26
-21 17 -42 28 -46 23 -5 -4 -2 -10 5 -12 7 -3 26 -16 43 -30 16 -14 69 -46
117 -71 48 -25 105 -56 126 -70 35 -22 37 -25 21 -35 -13 -7 -34 -6 -69 2 -57
14 -156 60 -156 73 0 4 -18 11 -40 14 -22 4 -40 12 -40 18 0 7 -3 6 -8 -2 -5
-7 -19 -15 -33 -18 -63 -15 -118 -23 -165 -23 -32 -1 -56 -6 -64 -15 -6 -8
-26 -20 -43 -25 -47 -15 -167 -23 -167 -11 0 9 31 14 46 8 3 -2 11 8 18 21 9
16 15 20 21 12 5 -9 10 -8 18 3 7 9 32 18 57 21 25 3 56 8 70 11 14 3 33 6 43
6 15 -1 16 2 7 14 -10 11 -9 14 4 14 9 0 16 -4 16 -9 0 -10 99 -23 112 -15 5
4 0 13 -11 21 -24 16 -18 38 8 28 14 -5 14 -4 1 8 -8 8 -44 38 -80 67 -36 29
-65 60 -65 69 0 9 -20 31 -45 49 -52 37 -145 142 -168 190 -18 37 -31 39 -92
11 -47 -23 -209 -61 -222 -53 -4 3 -16 0 -26 -5 -33 -17 -412 -71 -502 -71
-31 0 -103 7 -161 15 -102 15 -129 28 -129 61 0 6 -7 18 -16 25 -15 12 -16 11
-9 -11 4 -14 16 -35 27 -47 19 -20 19 -21 1 -33 -16 -10 -16 -10 5 -5 25 7 62
-2 62 -15 0 -12 -96 -33 -125 -27 -29 5 -32 1 -7 -12 12 -6 39 -4 81 5 62 15
64 14 87 -7 32 -30 32 -59 2 -52 -23 5 -23 5 -3 -10 22 -17 27 -14 -67 -46
-47 -16 -59 -17 -68 -6 -6 7 -9 19 -8 26 2 7 -5 15 -15 17 -17 4 -18 2 -2 -27
8 -17 20 -31 26 -31 6 0 7 -5 3 -12 -5 -8 -2 -9 12 -4 85 35 128 45 141 35 24
-21 13 -36 -44 -61 -32 -14 -69 -30 -83 -36 -34 -15 -7 -14 66 1 l61 13 21
-31 c12 -17 25 -45 28 -63 l7 -32 -69 0 c-38 0 -86 4 -107 9 -27 7 -37 6 -34
-2 4 -13 32 -20 134 -37 66 -11 72 -14 82 -41 6 -17 20 -43 32 -60 20 -28 20
-31 4 -55 -14 -22 -22 -25 -48 -20 -34 7 -97 51 -97 68 0 6 7 5 17 -3 15 -13
15 -12 2 9 -8 12 -17 22 -22 22 -4 0 -5 -5 -1 -12 4 -7 3 -8 -4 -4 -8 5 -9 13
-2 25 9 18 -2 35 -37 55 -16 9 -6 -22 15 -46 20 -23 5 -23 -22 -1 -11 10 3 -9
31 -41 48 -54 59 -83 30 -73 -13 4 -42 -21 -34 -30 3 -3 19 4 36 16 28 20 30
21 60 4 17 -10 31 -26 31 -35 0 -22 -14 -23 -33 -4 -9 9 -19 11 -28 5 -18 -11
-32 -11 -24 0 3 5 1 12 -5 16 -6 3 -10 -3 -10 -15 0 -19 4 -21 31 -15 20 5 29
3 25 -3 -6 -11 18 -35 39 -38 9 -1 12 4 8 14 -3 10 4 3 16 -15 27 -43 37 -122
18 -147 -17 -23 -41 -16 -84 24 -57 53 -47 32 16 -35 33 -36 61 -72 61 -81 0
-24 -46 -40 -68 -23 -86 63 -114 88 -159 140 -29 33 -53 63 -53 67 0 4 18 17
39 28 l39 21 31 -28 c28 -26 28 -26 -2 7 l-34 36 -38 -26 c-29 -20 -41 -23
-51 -15 -17 14 -74 118 -74 135 0 7 18 21 40 31 45 20 49 28 20 36 -11 3 -18
1 -15 -4 5 -7 -44 -39 -60 -39 -6 0 -45 62 -45 73 0 4 4 7 9 7 18 0 101 52 96
61 -3 4 -27 -5 -54 -21 -49 -31 -71 -37 -71 -21 0 5 -20 8 -44 7 -25 -1 -42 2
-40 6 3 4 14 8 25 8 10 0 19 4 19 9 0 6 -12 6 -32 0 -18 -5 -34 -9 -35 -9 -2
0 -3 -8 -4 -17 0 -11 -3 -13 -6 -5 -2 6 -12 12 -21 12 -21 0 66 51 90 53 20 1
23 19 8 47 -14 27 29 55 82 53 32 -2 39 1 34 13 -3 9 -6 18 -6 20 0 10 -29 3
-70 -17 -42 -21 -44 -21 -58 -3 -18 24 -52 102 -52 119 0 9 20 15 60 20 61 7
77 6 73 -7 -2 -4 4 -5 13 -1 8 3 26 -5 41 -18 16 -15 24 -18 21 -9 -3 8 -22
27 -42 41 -37 24 -40 25 -89 12 -66 -17 -77 -16 -77 2 0 8 -4 15 -10 15 -6 0
-10 28 -10 63 0 51 4 68 20 82 11 10 20 24 20 31 0 7 14 24 31 38 18 15 27 31
23 37 -4 7 -3 9 2 6 5 -3 17 8 27 25 14 24 14 28 3 19 -8 -7 -21 -9 -27 -5 -9
5 -10 2 -6 -9 4 -12 2 -14 -10 -10 -11 4 -14 2 -9 -5 4 -7 2 -12 -4 -12 -6 0
-9 -4 -6 -9 3 -4 -3 -16 -14 -26 -17 -16 -23 -16 -52 -4 -18 7 -54 33 -80 57
-45 42 -47 43 -99 36 -52 -7 -89 -31 -89 -57 0 -8 -9 -22 -20 -32 -12 -11 -20
-31 -20 -49 0 -19 -10 -40 -27 -58 -15 -15 -21 -28 -15 -28 7 0 12 5 12 10 0
6 8 10 18 10 14 0 18 -9 20 -46 1 -25 8 -52 17 -60 13 -14 12 -20 -14 -57 -33
-49 -33 -82 0 -128 19 -27 20 -34 9 -55 -8 -13 -19 -24 -27 -24 -7 0 -13 -4
-13 -10 0 -5 5 -10 10 -10 6 0 10 -12 10 -28 0 -15 18 -63 40 -107 42 -83 44
-105 12 -105 -50 0 -125 100 -210 279 -68 145 -98 223 -106 284 -6 38 -4 47 8
47 8 0 17 4 20 8 3 5 -5 8 -17 8 -16 -1 -23 6 -26 24 -4 33 18 130 30 130 5 0
9 14 9 31 0 21 9 39 29 57 60 55 87 68 180 86 93 17 93 17 108 -3 8 -12 19
-21 26 -21 6 0 -3 14 -20 31 -34 35 -94 52 -173 50 -189 -4 -189 -4 -310 34
l-119 38 -10 46 c-15 70 -9 132 16 164 12 16 20 34 17 42 -3 7 -1 16 5 20 6 3
11 2 11 -2 0 -5 12 -9 28 -8 19 0 27 5 26 18 -2 20 12 23 19 3 3 -7 0 -19 -6
-25 -15 -15 4 -33 23 -21 12 8 13 13 3 30 -18 28 -18 29 30 50 50 23 68 25 61
6 -3 -8 3 -16 16 -19 19 -5 21 -2 16 18 -6 23 -5 23 57 18 34 -2 78 -8 97 -14
19 -5 61 -9 92 -9 48 0 59 -3 69 -22 10 -19 12 -19 21 -5 5 10 20 17 33 17 13
0 35 4 49 10 18 6 28 6 33 -3 9 -15 44 -110 40 -112 -9 -6 -89 -35 -97 -35 -5
0 -19 17 -30 38 -12 21 -18 27 -14 13 3 -13 15 -39 26 -57 20 -35 32 -45 22
-20 -3 8 4 15 18 18 13 3 40 13 60 22 l36 16 42 -50 42 -50 -46 -47 c-45 -44
-56 -63 -37 -63 5 0 17 -7 25 -16 9 -8 16 -11 16 -5 0 5 -9 16 -20 24 -19 13
-18 16 30 56 34 28 54 39 64 34 25 -14 126 -114 126 -124 0 -6 9 -8 19 -4 19
6 50 -9 163 -80 26 -17 48 -36 48 -44 0 -11 3 -11 14 -1 16 12 48 0 155 -62
41 -24 68 -31 120 -34 36 -2 77 -7 91 -10 41 -10 347 -13 325 -4 -11 5 -46 9
-77 9 -45 1 -57 5 -61 19 -4 15 -5 15 -6 -2 -1 -17 -7 -18 -75 -13 -40 4 -85
11 -100 16 -14 6 -49 13 -77 16 -47 6 -85 18 -221 71 -48 18 -48 18 -48 66 0
26 2 48 5 48 3 0 24 -9 46 -21 22 -11 80 -29 127 -39 48 -11 110 -26 137 -34
52 -16 178 -30 255 -28 25 0 74 1 109 1 35 1 62 4 58 7 -3 3 -46 6 -94 5 -103
-1 -183 7 -183 19 0 5 10 25 23 44 12 19 37 61 55 93 18 33 43 71 55 86 l22
28 133 -132 c72 -73 132 -133 132 -135 0 -2 -20 -4 -43 -4 -24 0 -47 -3 -51
-7 -8 -9 -12 -9 -58 -13 -23 -2 -27 -4 -13 -7 11 -3 26 -10 33 -15 8 -7 12 -7
12 -1 0 6 31 10 73 10 74 -1 144 17 194 50 28 19 32 20 78 29 28 5 30 8 27 42
-2 20 1 49 7 65 l11 28 38 -20 c59 -30 67 -44 53 -91 -6 -21 -18 -46 -26 -54
-8 -8 -11 -17 -6 -20 5 -4 18 6 29 21 17 24 25 27 68 24 27 -1 53 -6 58 -11 5
-5 -1 -23 -13 -43 -11 -19 -21 -43 -21 -53 1 -11 10 3 22 30 l21 48 53 -4 c70
-6 88 -21 70 -57 -8 -14 -23 -35 -35 -45 -12 -11 -21 -30 -20 -45 1 -21 2 -22
6 -6 6 21 51 65 68 65 6 0 35 -17 65 -38 45 -32 55 -43 55 -68 0 -25 -4 -29
-27 -29 -15 -1 -31 -5 -35 -9 -4 -5 3 -5 17 -2 l25 7 -25 -16 c-25 -16 -24
-16 22 -11 46 5 47 5 98 -51 60 -66 85 -101 77 -109 -6 -6 -178 11 -214 22
-13 3 -23 2 -23 -2 0 -5 42 -17 94 -27 146 -26 146 -26 146 -91 0 -30 -5 -58
-11 -62 -8 -4 -7 -9 2 -15 20 -13 29 -11 29 5 0 19 20 26 42 15 10 -6 19 -5
23 1 3 5 17 10 31 10 13 0 24 5 24 11 0 5 4 8 8 5 4 -2 14 0 22 5 11 8 6 9
-18 6 -18 -2 -35 0 -38 5 -8 13 -34 9 -50 -7 -16 -16 -40 -11 -48 10 -3 10 10
17 47 25 29 6 69 15 90 21 l37 10 0 233 c0 229 0 234 -20 229 -22 -6 -194 6
-187 13 3 4 89 10 180 13 20 1 27 6 27 22 0 16 -4 19 -17 14 -10 -4 -29 -10
-43 -12 -18 -3 -12 2 18 18 23 13 42 27 42 32 0 5 -6 7 -12 4 -7 -3 -31 -13
-53 -22 -37 -16 -38 -16 -25 0 8 10 32 28 52 41 l38 24 0 165 c0 142 -2 164
-15 159 -12 -5 -15 2 -15 30 0 37 15 49 23 19 3 -10 5 97 6 236 1 198 -2 252
-11 243 -7 -7 -19 -12 -28 -12 -10 1 -7 8 13 25 l27 24 0 346 0 345 -25 0
c-32 0 -32 16 0 24 30 8 34 36 5 36 -11 0 -20 5 -20 10 0 6 9 10 20 10 24 0
27 25 4 34 -9 3 -38 6 -64 6 -27 0 -52 4 -55 10 -4 6 20 10 64 10 74 0 79 3
57 32 -12 17 -79 18 -1135 18 l-1121 0 25 -40 c14 -22 20 -40 14 -40 -14 0
-46 36 -54 61 -5 16 -17 19 -72 19 l-66 0 19 -22 c10 -13 31 -34 45 -48 15
-14 47 -55 73 -93 34 -50 45 -74 40 -91 -3 -13 4 -54 15 -91 12 -37 21 -84 20
-104 0 -28 -5 -19 -21 44 -25 100 -26 107 -27 123 -1 6 -9 12 -18 12 -14 0
-15 2 -4 9 11 7 10 15 -4 45 -25 52 -155 181 -155 153 0 -1 18 -23 41 -47 44
-48 89 -114 89 -129 0 -6 -7 -8 -16 -4 -12 4 -15 0 -12 -18 2 -17 9 -24 26
-24 28 -1 52 -29 52 -62 0 -28 -16 -30 -25 -3 -4 11 -11 17 -17 14 -7 -5 -7
-9 0 -13 20 -12 34 -66 28 -106 -3 -22 -2 -53 3 -70 l9 -30 1 35 c1 25 4 31
10 20 12 -21 2 -87 -11 -69 -5 9 -7 0 -3 -26 4 -31 3 -36 -5 -20 -9 17 -10 16
-6 -8 3 -24 -17 -87 -60 -192 -7 -18 -6 -18 9 -6 15 12 17 11 17 -12 0 -22
-30 -62 -30 -41 0 5 -5 2 -10 -6 -8 -11 -9 -8 -4 13 l7 29 -27 -27 c-14 -14
-26 -31 -26 -37 0 -5 -6 -8 -12 -5 -8 3 -14 -5 -14 -20 -2 -22 -1 -23 15 -9
10 9 21 16 25 16 11 0 -14 -22 -49 -44 -16 -10 -41 -29 -55 -41 -14 -13 -36
-26 -49 -30 -14 -4 -34 -16 -45 -26 -31 -29 -92 -45 -111 -29 -11 9 -40 11
-108 7 -50 -3 -84 -3 -74 0 14 3 15 8 7 18 -15 18 36 31 57 14 11 -10 25 -9
66 6 63 22 87 41 80 63 -4 15 -3 15 6 2 10 -14 16 -7 12 13 -1 5 3 6 7 3 5 -3
18 4 28 16 11 12 13 18 7 14 -7 -4 -21 -9 -30 -12 -122 -30 -150 -38 -163 -44
-9 -4 -49 -13 -89 -20 -40 -8 -80 -20 -87 -28 -13 -12 -24 -12 -82 4 -37 10
-59 20 -49 22 9 2 14 8 11 14 -4 7 5 8 27 4 32 -6 32 -5 -8 11 -23 10 -45 21
-49 26 -4 4 -14 7 -23 7 -9 -1 -3 -8 14 -17 24 -14 26 -18 13 -21 -23 -4 -52
24 -44 43 4 10 -1 15 -15 15 -11 0 -28 7 -37 16 -14 15 -16 15 -24 -5 -9 -27
-14 -26 -50 4 -16 14 -36 25 -44 25 -20 0 -42 22 -36 38 2 6 -1 12 -7 12 -11
0 -41 51 -41 71 0 7 8 5 20 -6 11 -10 19 -23 17 -29 -2 -6 9 -20 24 -32 16
-11 26 -24 22 -27 -7 -7 -7 -8 49 -10 35 -2 36 -1 20 17 -9 11 -34 36 -54 56
-36 35 -52 69 -25 54 6 -3 -7 13 -30 36 -45 43 -55 64 -26 53 13 -5 15 -2 10
11 -4 10 -10 30 -14 44 -6 24 -5 26 10 14 15 -12 15 -10 7 20 -6 18 -10 48
-10 66 0 18 -8 41 -17 50 -16 16 -16 16 -11 -6 3 -12 2 -20 -3 -16 -5 3 -9 -3
-10 -13 0 -14 -3 -12 -10 6 -5 14 -11 71 -12 127 -2 81 -5 100 -15 92 -27 -23
-20 1 18 60 22 34 40 66 40 72 0 6 11 23 25 38 14 15 25 31 25 36 0 5 11 19
26 32 l25 24 -61 0 c-34 0 -71 -5 -82 -11 -15 -8 -19 -8 -14 0 5 8 -27 11
-108 11 l-116 0 0 -622z m3520 592 c0 -5 -9 -10 -19 -10 -11 0 -23 5 -26 10
-4 6 5 10 19 10 14 0 26 -4 26 -10z m120 0 c0 -5 -7 -10 -15 -10 -8 0 -15 5
-15 10 0 6 7 10 15 10 8 0 15 -4 15 -10z m-1306 -9 c3 -5 -1 -11 -9 -15 -15
-6 -29 7 -18 18 9 9 21 8 27 -3z m-374 -41 c0 -5 -5 -10 -11 -10 -5 0 -7 5 -4
10 3 6 8 10 11 10 2 0 4 -4 4 -10z m1315 -30 c4 -6 -14 -9 -47 -8 l-53 1 45 7
c25 4 46 8 47 8 1 1 5 -2 8 -8z m335 -6 c0 -2 -15 -4 -32 -4 -23 0 -29 3 -19
9 12 8 51 4 51 -5z m-2122 -39 c-3 -3 -9 2 -12 12 -6 14 -5 15 5 6 7 -7 10
-15 7 -18z m2087 5 c3 -5 -3 -10 -15 -10 -12 0 -18 5 -15 10 3 6 10 10 15 10
5 0 12 -4 15 -10z m-1840 -19 c-6 -5 -21 -12 -35 -16 -22 -7 -23 -6 -11 9 7 9
23 16 34 16 13 0 17 -4 12 -9z m205 -11 c0 -5 -5 -10 -11 -10 -5 0 -7 5 -4 10
3 6 8 10 11 10 2 0 4 -4 4 -10z m-134 -30 c49 -50 49 -74 -1 -109 -26 -17 -42
-22 -62 -16 -40 10 -73 44 -73 76 0 58 94 92 136 49z m769 0 c-3 -5 -20 -10
-36 -10 -18 0 -28 4 -24 10 3 6 20 10 36 10 18 0 28 -4 24 -10z m505 -6 c0 -2
-7 -4 -15 -4 -8 0 -15 4 -15 10 0 5 7 7 15 4 8 -4 15 -8 15 -10z m270 12 c0
-3 -4 -8 -10 -11 -5 -3 -10 -1 -10 4 0 6 5 11 10 11 6 0 10 -2 10 -4z m200 -6
c0 -12 -8 -12 -35 0 -18 8 -17 9 8 9 15 1 27 -3 27 -9z m-1100 -20 c0 -5 -7
-10 -15 -10 -8 0 -15 5 -15 10 0 6 7 10 15 10 8 0 15 -4 15 -10z m697 4 c-3
-3 -12 -4 -19 -1 -8 3 -5 6 6 6 11 1 17 -2 13 -5z m108 -4 c21 -9 13 -12 -30
-12 -54 0 -66 2 -60 12 7 12 62 12 90 0z m-1109 -25 c-11 -8 -22 -12 -25 -9
-6 6 19 24 34 24 6 -1 1 -7 -9 -15z m-661 -15 c-4 -6 -1 -18 6 -26 13 -16 6
-30 -10 -19 -12 7 -15 38 -4 48 10 11 15 8 8 -3z m1982 -6 c-3 -3 -12 -4 -19
-1 -8 3 -5 6 6 6 11 1 17 -2 13 -5z m-960 -10 c-3 -3 -12 -4 -19 -1 -8 3 -5 6
6 6 11 1 17 -2 13 -5z m330 0 c13 -4 21 -10 18 -14 -6 -9 -53 -1 -61 11 -6 10
11 11 43 3z m-652 -13 c-7 -12 -75 -35 -82 -28 -6 6 54 35 75 36 7 1 11 -3 7
-8z m910 -11 c-3 -5 -1 -10 4 -10 6 0 11 -4 11 -9 0 -8 -36 -5 -68 5 -23 7 -2
24 29 24 18 0 28 -4 24 -10z m-560 -32 c-45 -10 -86 0 -45 11 14 4 38 5 55 2
30 -5 30 -5 -10 -13z m780 13 c-12 -11 -105 -19 -105 -9 0 11 22 16 70 17 26
1 40 -3 35 -8z m-1228 -7 c-3 -3 -12 -4 -19 -1 -8 3 -5 6 6 6 11 1 17 -2 13
-5z m843 -4 c0 -12 -37 -12 -65 0 -15 7 -10 9 23 9 23 1 42 -3 42 -9z m-1090
-14 c0 -2 -7 -7 -16 -10 -8 -3 -12 -2 -9 4 6 10 25 14 25 6z m1695 -3 c16 -5
15 -8 -4 -23 -22 -16 -22 -16 29 -44 47 -26 50 -29 33 -42 -10 -7 -13 -14 -6
-14 6 0 16 -12 22 -27 14 -35 32 -64 49 -78 19 -15 5 -86 -18 -92 -9 -3 -23
-20 -30 -39 -8 -19 -17 -34 -21 -34 -4 0 -11 -9 -14 -20 -3 -11 -10 -20 -15
-20 -5 0 -7 7 -4 15 4 8 1 15 -5 15 -6 0 -11 -9 -11 -21 0 -14 -5 -19 -14 -16
-8 3 -17 -1 -20 -9 -5 -13 -9 -12 -28 5 -28 27 -36 19 -9 -8 19 -19 22 -19 52
-4 26 13 33 13 40 2 6 -10 2 -17 -16 -23 -31 -12 -32 -23 -2 -28 12 -2 -19 -5
-70 -6 -85 -2 -93 -1 -108 20 -16 22 -17 22 -11 2 6 -18 3 -21 -19 -16 -14 2
-25 9 -25 14 0 5 4 7 9 4 5 -3 12 2 15 11 4 10 4 14 0 10 -12 -11 -61 31 -68
59 -4 15 -9 24 -12 22 -2 -3 0 -17 5 -32 6 -14 7 -26 2 -26 -31 0 -76 159 -52
183 9 9 11 4 6 -20 -3 -22 -1 -33 6 -33 8 0 10 21 7 68 l-5 68 28 -4 c17 -2
26 -9 22 -15 -3 -6 -1 -7 6 -3 6 4 9 12 5 17 -7 13 23 47 56 64 15 7 51 11 88
9 41 -2 60 1 56 8 -4 5 -19 8 -34 4 -18 -3 -33 0 -40 9 -14 16 -5 35 16 35 8
0 14 5 14 10 0 6 -4 10 -10 10 -12 0 -9 22 5 32 12 10 78 10 100 1z m-3314
-30 c2 -60 15 -121 34 -161 21 -43 29 -82 16 -82 -6 0 -15 8 -18 18 -4 9 -13
27 -21 40 -12 18 -17 20 -23 10 -7 -10 -9 -10 -9 0 0 7 6 15 14 18 15 6 13 20
-11 96 -14 47 -11 88 8 88 5 0 9 -12 10 -27z m3093 17 c-15 -15 -144 -26 -144
-12 0 14 10 17 87 20 46 1 64 -1 57 -8z m79 -21 c-4 -4 -33 -11 -63 -13 -50
-5 -52 -4 -20 5 19 6 46 16 60 23 25 12 40 2 23 -15z m-1606 15 c-3 -3 -12 -4
-19 -1 -8 3 -5 6 6 6 11 1 17 -2 13 -5z m458 -5 c-44 -13 -99 -19 -89 -9 10
10 47 17 89 18 l30 0 -30 -9z m209 -8 c3 -4 -7 -8 -22 -9 -15 0 -43 -4 -62 -7
-24 -5 -32 -4 -25 3 19 19 99 29 109 13z m331 -1 c-3 -5 -16 -10 -28 -10 -18
0 -19 2 -7 10 20 13 43 13 35 0z m-661 -15 c-4 -8 -14 -15 -25 -15 -10 0 -40
-9 -67 -19 -57 -23 -90 -13 -49 14 14 9 31 14 37 10 6 -4 16 -2 23 3 13 10 41
19 69 21 12 1 15 -4 12 -14z m1126 -25 c0 -5 -18 -10 -40 -10 -22 0 -40 5 -40
10 0 6 18 10 40 10 22 0 40 -4 40 -10z m112 -2 c4 -10 -66 -67 -82 -68 -3 0
-6 9 -7 21 -1 13 5 23 18 26 10 3 19 9 19 13 0 7 16 14 42 19 3 0 8 -4 10 -11z
m-533 -15 c26 -11 42 -26 46 -41 3 -12 9 -21 14 -18 13 8 33 -38 29 -69 -3
-27 -4 -28 -20 -11 -10 10 -18 28 -18 41 0 14 -13 34 -32 50 -26 22 -39 26
-72 23 -23 -3 -49 -8 -58 -12 -26 -12 -12 27 15 41 32 16 52 15 96 -4z m-992
1 c-3 -3 -12 -4 -19 -1 -8 3 -5 6 6 6 11 1 17 -2 13 -5z m-217 -28 c0 -9 -9
-14 -20 -13 -22 1 -27 13 -7 20 21 9 27 7 27 -7z m330 7 c0 -4 -21 -29 -47
-56 -35 -35 -45 -50 -35 -56 14 -8 8 -16 -27 -36 -11 -6 -13 -4 -7 11 5 10 9
27 10 36 3 38 106 136 106 101z m260 -13 c-10 -19 -8 -20 35 -20 25 0 45 -4
45 -10 0 -5 -7 -7 -15 -4 -8 4 -33 -1 -55 -10 -27 -11 -41 -12 -46 -5 -4 6 -1
15 6 19 7 4 8 10 4 13 -13 8 -65 -4 -59 -13 3 -5 1 -11 -5 -15 -5 -3 -15 -15
-20 -25 -8 -16 -8 -18 5 -14 8 3 12 10 9 16 -3 5 2 8 12 6 13 -2 19 3 18 15
-2 25 11 21 24 -8 10 -21 9 -25 -5 -25 -9 0 -14 -3 -11 -6 3 -3 25 0 48 6 28
8 51 8 73 1 52 -16 131 -25 124 -14 -4 6 -25 13 -47 17 -31 5 -40 11 -40 26 0
28 24 25 99 -13 64 -32 98 -67 51 -52 -14 5 -20 3 -16 -3 3 -6 0 -13 -6 -15
-8 -3 -6 -6 5 -6 9 -1 17 -6 17 -12 0 -5 -5 -7 -12 -3 -6 4 -2 -8 9 -27 53
-85 66 -122 69 -187 2 -37 5 -84 6 -104 1 -28 -4 -43 -20 -58 -28 -26 -38 -66
-21 -86 10 -12 9 -18 -6 -32 -16 -16 -17 -16 -6 5 8 16 8 22 -4 27 -8 3 -15 1
-15 -4 0 -6 -29 -25 -65 -42 -36 -18 -65 -36 -65 -40 0 -5 10 -12 23 -17 21
-8 20 -9 -17 -25 -44 -18 -137 -23 -119 -5 6 6 29 13 52 16 83 11 49 22 -52
16 -96 -5 -108 -4 -153 18 -68 33 -171 133 -156 152 9 10 6 23 -9 54 -11 23
-20 56 -20 75 0 18 0 51 0 73 2 129 36 113 43 -21 6 -104 24 -144 70 -162 20
-7 29 -16 25 -26 -6 -14 21 -32 31 -21 3 3 0 5 -7 5 -7 0 -10 4 -6 9 3 6 -12
24 -34 42 -46 36 -61 72 -61 141 0 57 -18 138 -31 138 -5 0 -9 5 -9 11 0 6 6
9 13 6 6 -2 17 3 24 12 16 21 17 39 1 23 -19 -19 -31 -14 -25 10 4 12 2 27 -3
33 -15 18 59 87 131 122 84 40 87 41 137 42 40 1 42 0 32 -19z m-2048 -20 c3
-16 1 -30 -3 -30 -4 0 -9 14 -11 30 -3 17 -1 30 3 30 4 0 9 -13 11 -30z m2637
0 c12 0 67 -54 66 -65 -1 -5 -5 -18 -8 -27 -4 -10 -9 -25 -12 -33 -6 -20 -47
-35 -82 -29 -33 5 -98 72 -100 103 -1 11 2 21 8 21 5 0 9 -5 9 -12 0 -6 10 -2
23 9 32 29 60 43 75 38 8 -3 17 -5 21 -5z m221 -5 c10 -12 10 -15 -3 -15 -8 0
-17 7 -21 15 -3 8 -2 15 3 15 5 0 14 -7 21 -15z m-1525 -55 c1 -11 -4 -20 -10
-20 -8 0 -10 10 -7 25 5 29 15 25 17 -5z m319 18 c-21 -37 -47 -69 -51 -64 -6
6 44 76 53 76 3 0 2 -6 -2 -12z m1873 -14 c-9 -9 -28 6 -21 18 4 6 10 6 17 -1
6 -6 8 -13 4 -17z m-517 -4 c0 -5 -7 -10 -16 -10 -8 0 -12 5 -9 10 3 6 10 10
16 10 5 0 9 -4 9 -10z m-1432 -22 c-6 -18 -28 -21 -28 -4 0 9 7 16 16 16 9 0
14 -5 12 -12z m-1512 -47 c11 -29 20 -38 32 -34 15 4 15 3 2 -6 -29 -21 -50
-13 -50 18 0 16 -3 36 -6 45 -3 9 -3 16 0 16 3 0 13 -18 22 -39z m2684 20 c12
-8 10 -14 -11 -35 -51 -51 -145 -65 -182 -27 -12 11 -16 21 -10 21 6 0 16 -7
23 -15 18 -22 46 -19 106 12 33 17 50 31 47 40 -6 15 6 17 27 4z m260 -1 c0
-5 -4 -10 -9 -10 -6 0 -13 5 -16 10 -3 6 1 10 9 10 9 0 16 -4 16 -10z m-3084
-54 c2 -20 -1 -38 -7 -41 -5 -4 -9 14 -9 41 0 53 11 53 16 0z m1768 15 c-6
-26 -4 -29 15 -24 23 6 28 -8 9 -29 -7 -7 -13 -17 -13 -23 0 -5 -4 -43 -9 -84
-5 -51 -10 -70 -17 -60 -5 8 -9 26 -9 40 0 15 -7 30 -15 33 -12 4 -13 11 -7
23 6 10 13 38 17 63 8 49 22 90 30 90 2 0 2 -13 -1 -29z m-1673 9 c24 -13 25
-28 2 -26 -18 1 -33 14 -33 29 0 10 8 9 31 -3z m1643 -19 c-3 -16 -14 -53 -23
-82 -18 -54 -17 -90 2 -86 5 1 16 -29 23 -66 7 -37 16 -77 19 -87 9 -28 -13
-25 -25 3 -9 22 -9 22 -9 1 -1 -31 61 -117 90 -125 13 -4 19 -7 12 -8 -7 -1
-10 -8 -7 -16 9 -23 -19 -18 -36 6 -8 12 -22 29 -31 38 -36 35 -72 141 -49
141 6 0 8 -6 4 -12 -5 -9 -4 -10 4 -3 12 11 -2 89 -21 113 -19 25 -18 100 4
156 22 60 53 79 43 27z m740 -21 c19 -47 20 -53 6 -45 -9 5 -40 69 -40 81 0 2
4 4 9 4 5 0 16 -18 25 -40z m94 -9 c3 -15 -1 -22 -9 -19 -7 2 -14 14 -16 27
-2 15 1 21 9 19 7 -3 15 -15 16 -27z m322 25 c0 -9 -30 -14 -35 -6 -4 6 3 10
14 10 12 0 21 -2 21 -4z m58 -18 c-3 -7 -31 -21 -64 -31 -32 -10 -74 -23 -92
-28 -19 -6 -36 -8 -39 -5 -8 8 60 35 114 45 24 5 50 14 56 20 15 15 30 14 25
-1z m-2795 -23 c8 -19 -13 -31 -23 -14 -9 14 -4 29 10 29 4 0 10 -7 13 -15z
m21 3 c-5 -8 -2 -9 9 -5 11 4 17 1 17 -8 0 -8 9 -20 19 -27 10 -6 17 -18 14
-25 -4 -10 -15 -3 -39 23 -35 38 -42 54 -23 54 5 0 7 -5 3 -12z m1259 -71 c-4
-22 -8 -25 -19 -16 -10 8 -19 4 -39 -18 -17 -18 -23 -21 -17 -8 6 11 21 32 35
47 14 15 23 29 20 32 -3 2 -2 10 3 17 11 18 23 -21 17 -54z m117 48 c0 -8 -4
-15 -10 -15 -5 0 -7 7 -4 15 4 8 8 15 10 15 2 0 4 -7 4 -15z m50 0 c0 -19 -32
-85 -41 -85 -5 0 -2 21 6 48 8 26 15 48 15 50 0 11 20 -1 20 -13z m971 -20 c1
-14 2 -28 3 -32 1 -5 5 -22 9 -39 8 -33 -7 -91 -17 -64 -8 24 -12 160 -3 160
4 0 8 -11 8 -25z m-82 -58 c24 -44 26 -60 7 -76 -11 -9 -17 1 -35 54 -25 78
-28 110 -7 80 7 -11 23 -37 35 -58z m-2495 -11 c28 -47 32 -66 16 -66 -5 0
-13 12 -16 28 -4 15 -13 39 -21 55 -21 43 -8 32 21 -17z m186 35 c0 -6 -4 -13
-10 -16 -5 -3 -10 1 -10 9 0 9 5 16 10 16 6 0 10 -4 10 -9z m-110 -17 c0 -8
-5 -12 -10 -9 -6 4 -8 11 -5 16 9 14 15 11 15 -7z m1580 -8 c0 -2 -9 -6 -20
-9 -11 -3 -20 -1 -20 4 0 5 9 9 20 9 11 0 20 -2 20 -4z m1240 -10 c0 -9 -61
-48 -67 -43 -3 3 10 15 28 26 36 22 39 23 39 17z m100 -6 c-8 -5 -19 -10 -25
-10 -5 0 -3 5 5 10 8 5 20 10 25 10 6 0 3 -5 -5 -10z m-2894 -27 c-7 -7 -26 7
-26 19 0 6 6 6 15 -2 9 -7 13 -15 11 -17z m1524 -8 c0 -8 -4 -15 -10 -15 -5 0
-10 7 -10 15 0 8 5 15 10 15 6 0 10 -7 10 -15z m-1405 -5 c3 -6 -1 -7 -9 -4
-18 7 -21 14 -7 14 6 0 13 -4 16 -10z m2970 0 c3 -5 1 -10 -4 -10 -6 0 -11 5
-11 10 0 6 2 10 4 10 3 0 8 -4 11 -10z m-1665 -20 c-6 -11 -13 -20 -15 -20 -2
0 -3 9 -2 20 1 11 7 20 14 20 11 0 11 -5 3 -20z m1165 0 c-3 -5 -11 -10 -16
-10 -6 0 -7 5 -4 10 3 6 11 10 16 10 6 0 7 -4 4 -10z m-2535 -30 c0 -5 -6 -10
-14 -10 -8 0 -18 5 -21 10 -3 6 3 10 14 10 12 0 21 -4 21 -10z m3060 -5 c11
-13 1 -15 -79 -14 -49 0 -95 -2 -100 -5 -5 -4 -12 -2 -16 3 -11 18 30 30 106
31 56 0 80 -4 89 -15z m130 5 c8 -5 12 -12 8 -15 -9 -9 -48 4 -48 16 0 12 21
11 40 -1z m-3045 -38 c-3 -3 -11 0 -18 7 -9 10 -8 11 6 5 10 -3 15 -9 12 -12z
m3239 3 c-4 -8 -7 -15 -9 -15 -2 0 -5 7 -9 15 -3 9 0 15 9 15 9 0 12 -6 9 -15z
m-3353 -12 c13 -16 12 -17 -3 -4 -17 13 -22 21 -14 21 2 0 10 -8 17 -17z m233
8 c4 -5 0 -12 -6 -14 -17 -7 32 -48 50 -42 6 2 12 -1 12 -7 0 -6 -11 -8 -29
-5 -15 3 -32 2 -37 -3 -10 -10 -74 26 -74 41 0 6 6 6 17 1 17 -10 43 6 43 27
0 13 17 14 24 2z m2811 -11 c11 -5 27 -11 35 -13 8 -3 -2 -6 -23 -6 -23 -1
-36 -5 -32 -11 4 -6 10 -8 15 -5 5 3 12 0 16 -6 5 -9 0 -10 -17 -6 -13 4 -31
7 -39 7 -13 0 -13 1 0 10 16 11 -9 14 -85 10 -92 -4 -136 -21 -180 -70 -10
-11 -23 -20 -29 -20 -5 0 -27 -17 -48 -37 -32 -31 -40 -35 -48 -23 -5 8 -10
20 -10 25 0 13 70 63 130 93 25 13 53 32 63 44 13 16 25 19 50 15 17 -2 50 -2
72 2 44 8 99 4 130 -9z m-1795 0 c0 -5 -5 -10 -11 -10 -5 0 -7 5 -4 10 3 6 8
10 11 10 2 0 4 -4 4 -10z m1055 -38 c-7 -15 -8 -15 -15 3 -7 17 -9 14 -9 -12
-1 -18 -5 -33 -10 -33 -5 0 -5 16 0 38 5 20 9 41 9 45 0 5 7 1 16 -8 10 -9 13
-22 9 -33z m430 38 c-3 -5 -12 -10 -18 -10 -7 0 -6 4 3 10 19 12 23 12 15 0z
m-1280 -19 c-8 -13 -35 -15 -35 -2 0 5 8 11 18 13 21 5 26 2 17 -11z m-1375
-1 c0 -5 7 -10 15 -10 22 0 75 -29 75 -40 0 -23 -52 -8 -88 25 -27 25 -32 35
-19 35 9 0 17 -4 17 -10z m3110 -20 c22 -11 40 -25 40 -30 0 -13 -6 -13 -33 1
-12 6 0 -10 27 -35 27 -25 46 -46 42 -46 -4 0 -33 14 -64 32 -31 17 -74 40
-95 50 -42 21 -43 43 -1 28 37 -14 52 -12 30 5 -18 13 -18 15 -3 15 10 0 36
-9 57 -20z m-228 -14 c8 -7 35 -16 61 -20 44 -7 51 -13 48 -42 0 -5 15 -18 34
-27 41 -19 47 -7 9 18 -19 12 -23 20 -15 28 7 7 31 0 83 -27 40 -21 80 -45 89
-52 8 -8 19 -14 23 -14 5 0 18 -12 30 -27 21 -28 35 -65 41 -118 2 -16 8 -49
13 -72 9 -43 2 -70 -16 -60 -5 4 -12 30 -16 58 -4 28 -9 49 -11 47 -3 -3 -7
-44 -10 -93 -3 -53 -10 -95 -18 -104 -8 -9 -19 -30 -26 -47 -7 -17 -29 -42
-51 -55 -43 -27 -78 -69 -40 -49 11 6 20 8 20 5 0 -13 -26 -31 -70 -49 -25
-11 -63 -27 -85 -37 -31 -14 -58 -17 -121 -15 -73 4 -90 9 -160 46 -44 23 -86
47 -94 53 -25 19 -60 82 -60 108 -1 13 -8 35 -16 49 -9 14 -13 17 -10 7 19
-61 16 -69 -8 -25 -31 57 -33 72 -6 65 11 -3 18 -1 15 4 -11 16 -8 124 3 159
6 19 14 48 16 64 3 16 14 38 24 50 11 12 25 31 31 44 7 13 37 34 69 48 44 19
53 27 42 34 -14 9 -7 14 14 11 4 -1 13 5 20 13 23 30 125 46 148 22z m-394
-21 c-29 -27 -50 -33 -42 -12 2 7 17 18 32 24 39 16 39 15 10 -12z m-2524 -18
c23 -18 59 -44 81 -57 28 -17 35 -26 24 -28 -24 -4 -115 54 -140 89 -27 38
-16 37 35 -4z m1194 -7 c-7 -10 -14 -18 -15 -16 -6 6 9 36 18 36 5 0 4 -9 -3
-20z m-1254 -21 c-8 -13 -24 -1 -24 18 0 13 3 13 15 3 8 -7 12 -16 9 -21z
m236 16 c27 -14 41 -35 23 -35 -11 0 -73 39 -73 45 0 9 21 5 50 -10z m198 1
c87 3 92 2 92 -18 0 -19 -4 -20 -62 -14 -35 4 -83 8 -108 9 -46 2 -70 11 -70
27 0 5 12 5 28 1 15 -4 69 -6 120 -5z m1206 -12 c3 -8 2 -12 -4 -9 -6 3 -10
10 -10 16 0 14 7 11 14 -7z m855 -1 c-35 -44 -49 -57 -49 -43 0 16 39 60 53
60 5 0 3 -8 -4 -17z m911 7 c0 -5 -5 -10 -11 -10 -5 0 -7 5 -4 10 3 6 8 10 11
10 2 0 4 -4 4 -10z m-2206 -19 c3 -4 3 -11 0 -14 -8 -7 -44 4 -44 14 0 12 37
12 44 0z m1386 -15 c0 -16 -38 -66 -51 -66 -16 0 -10 26 12 54 22 28 39 34 39
12z m-2620 -6 c0 -5 -2 -10 -4 -10 -3 0 -8 5 -11 10 -3 6 -1 10 4 10 6 0 11
-4 11 -10z m-20 -15 c14 -16 10 -18 -14 -9 -9 3 -16 10 -16 15 0 14 16 11 30
-6z m648 -6 c-27 -15 -118 -24 -118 -11 0 11 23 16 95 19 31 1 36 -1 23 -8z
m-694 -14 c11 -8 17 -17 14 -20 -3 -3 -16 3 -29 14 -27 23 -14 28 15 6z m211
4 c11 -17 -1 -21 -15 -4 -8 9 -8 15 -2 15 6 0 14 -5 17 -11z m1628 -15 c18 -9
42 -25 54 -36 12 -11 26 -18 31 -14 5 3 26 0 48 -6 38 -10 38 -11 14 -20 -27
-10 -101 7 -177 42 -42 19 -50 29 -36 43 10 11 32 8 66 -9z m878 -7 c-1 -12
-15 -9 -19 4 -3 6 1 10 8 8 6 -3 11 -8 11 -12z m-2280 -13 l34 -15 -39 5 c-22
3 -44 10 -50 16 -16 16 16 13 55 -6z m589 -34 c0 -5 -5 -10 -11 -10 -5 0 -7 5
-4 10 3 6 8 10 11 10 2 0 4 -4 4 -10z m650 -15 c147 -26 276 -62 367 -103 46
-20 83 -40 83 -44 0 -4 -9 -12 -21 -19 -18 -9 -29 -6 -72 21 -27 17 -64 34
-81 37 -21 4 -7 -7 44 -34 72 -37 76 -41 109 -108 19 -39 34 -85 33 -103 0
-29 2 -31 16 -20 13 12 14 10 4 -9 -7 -12 -11 -26 -10 -30 4 -12 -42 -85 -66
-106 -12 -10 -14 -16 -6 -12 10 4 9 2 -2 -8 -10 -8 -25 -32 -34 -53 -32 -80
-39 -94 -46 -94 -5 0 -34 32 -65 71 -32 40 -95 115 -141 168 -46 53 -101 127
-124 165 -22 38 -69 106 -104 152 -35 46 -64 88 -64 93 0 27 151 16 275 -20
106 -31 115 -32 58 -4 -29 15 -79 30 -110 35 -32 5 -88 14 -126 20 -46 7 -73
7 -86 0 -11 -5 -35 -10 -54 -10 -87 0 -202 -32 -295 -81 -51 -27 -105 -49
-120 -49 -26 1 -26 2 23 47 28 25 41 41 30 35 -11 -5 -29 -20 -39 -31 -27 -30
-48 -27 -44 6 2 20 14 32 48 49 41 21 141 48 215 58 63 9 314 -3 405 -19z
m-1260 -11 c0 -2 -9 -4 -21 -4 -11 0 -18 4 -14 10 5 8 35 3 35 -6z m-320 -13
c0 -5 -9 -7 -20 -4 -11 3 -20 7 -20 9 0 2 9 4 20 4 11 0 20 -4 20 -9z m440 -1
c0 -5 -4 -10 -10 -10 -5 0 -10 5 -10 10 0 6 5 10 10 10 6 0 10 -4 10 -10z
m-270 -26 c0 -14 -3 -14 -15 -4 -8 7 -15 14 -15 16 0 2 7 4 15 4 8 0 15 -7 15
-16z m700 12 c0 -3 -4 -8 -10 -11 -5 -3 -10 -1 -10 4 0 6 5 11 10 11 6 0 10
-2 10 -4z m505 -4 c6 -4 31 -36 55 -72 24 -36 63 -93 87 -128 24 -35 43 -71
43 -81 0 -10 -26 -42 -58 -72 -31 -30 -72 -73 -91 -95 l-34 -41 -34 19 c-18
11 -33 16 -33 11 0 -11 52 -43 105 -64 35 -15 40 -20 40 -50 1 -19 -3 -37 -8
-40 -7 -5 -61 22 -202 99 -13 6 -37 26 -55 42 -18 17 -35 30 -39 30 -8 0 -77
56 -120 98 -24 23 -30 36 -23 45 7 8 5 38 -6 95 -19 96 -25 87 103 152 94 47
238 75 270 52z m-489 -148 c-3 -8 -20 -14 -41 -14 -20 0 -45 -5 -57 -11 -19
-10 -20 -9 -13 23 12 57 29 81 70 103 l40 20 3 -54 c2 -29 1 -60 -2 -67z
m-661 90 c14 -9 25 -26 25 -37 0 -19 -2 -19 -30 8 -44 42 -41 59 5 29z m535
12 c0 -9 -39 -13 -51 -5 -10 6 -4 9 19 9 17 0 32 -2 32 -4z m1384 -5 c8 -12
-25 -19 -49 -11 -18 7 -18 8 5 12 14 3 28 6 32 7 4 0 9 -3 12 -8z m-1946 -32
c8 -12 11 -23 8 -27 -8 -8 -46 29 -46 44 0 18 23 8 38 -17z m252 27 c0 -3 -4
-8 -10 -11 -5 -3 -10 -1 -10 4 0 6 5 11 10 11 6 0 10 -2 10 -4z m170 -21 c-8
-10 -29 -15 -59 -14 -44 1 -45 1 -13 9 18 4 36 10 39 14 4 3 15 6 26 6 16 0
17 -3 7 -15z m1947 -17 c-3 -7 -5 -2 -5 12 0 14 2 19 5 13 2 -7 2 -19 0 -25z
m-386 -67 c134 -66 177 -101 240 -196 30 -43 69 -99 87 -123 18 -24 37 -54 42
-67 11 -28 -5 -41 -101 -80 l-64 -26 -140 143 c-140 143 -140 143 -189 256
-46 108 -48 114 -30 127 30 23 49 18 155 -34z m376 17 c-3 -7 -5 -2 -5 12 0
14 2 19 5 13 2 -7 2 -19 0 -25z m-1586 -18 c13 -70 18 -130 11 -130 -21 0 -79
150 -64 165 3 3 15 5 26 3 14 -2 22 -13 27 -38z m-786 -2 l16 -33 -21 24 c-11
13 -20 27 -20 32 0 18 10 8 25 -23z m3205 -44 c0 -8 -13 -43 -29 -77 -26 -59
-43 -85 -81 -126 -9 -9 -22 -25 -30 -36 -14 -18 -13 -19 1 -8 9 7 19 10 22 7
3 -3 11 -3 17 1 9 6 9 9 0 15 -9 6 -6 11 10 20 15 8 20 8 16 1 -11 -17 10 -13
24 4 15 18 30 19 30 3 0 -14 -92 -108 -104 -108 -5 0 -6 7 -2 15 8 21 -2 19
-40 -10 -18 -14 -35 -25 -38 -25 -12 0 34 40 47 41 9 0 9 2 -1 6 -6 2 -9 9 -6
14 3 6 -17 -4 -45 -21 -28 -18 -54 -38 -58 -45 -5 -7 -17 -15 -28 -18 -17 -4
-16 -5 5 -6 31 -2 76 -26 63 -34 -18 -11 -166 -21 -160 -10 4 6 -3 9 -16 6
-12 -2 -42 3 -67 11 l-45 16 40 -5 c25 -2 47 1 59 10 19 14 19 15 2 15 -15 0
-16 3 -7 14 9 11 9 15 -1 19 -7 3 12 7 42 8 81 4 81 4 131 27 26 12 79 53 118
92 87 87 108 117 93 132 -6 6 -7 17 -2 27 5 9 11 24 14 34 7 21 26 14 26 -9z
m-832 -13 c3 -8 -1 -12 -9 -9 -7 2 -15 10 -17 17 -3 8 1 12 9 9 7 -2 15 -10
17 -17z m-23 -31 c3 -5 -1 -10 -9 -10 -9 0 -16 5 -16 10 0 6 4 10 9 10 6 0 13
-4 16 -10z m884 -74 c-11 -25 -25 -46 -30 -46 -18 0 -8 44 19 87 21 33 28 39
30 24 2 -10 -7 -40 -19 -65z m-829 53 c0 -6 -4 -7 -10 -4 -5 3 -10 11 -10 16
0 6 5 7 10 4 6 -3 10 -11 10 -16z m-97 -77 c87 -57 101 -77 92 -139 -6 -46
-11 -61 -18 -52 -2 2 -25 40 -52 84 -27 44 -65 100 -84 125 -39 48 -39 48 62
-18z m-832 -54 c41 -51 98 -117 127 -148 28 -31 52 -62 52 -67 0 -8 -17 -7
-52 2 -29 7 -98 23 -153 36 -82 18 -217 67 -233 84 -5 5 169 185 178 185 4 0
40 -41 81 -92z m1050 -55 c13 -16 12 -17 -3 -4 -17 13 -22 21 -14 21 2 0 10
-8 17 -17z m-2757 -37 c-10 -8 -21 -12 -24 -9 -3 2 4 11 14 19 11 7 22 12 25
9 2 -3 -4 -12 -15 -19z m2811 8 c9 -9 13 -19 9 -23 -4 -3 -9 0 -11 7 -3 6 -10
9 -15 6 -6 -4 -8 -2 -4 4 3 5 0 13 -6 15 -9 4 -9 6 -1 6 6 1 19 -6 28 -15z
m-2575 -34 c0 -5 -5 -10 -11 -10 -5 0 -7 5 -4 10 3 6 8 10 11 10 2 0 4 -4 4
-10z m-262 -5 c-3 -3 -23 -8 -44 -10 -28 -4 -35 -2 -24 5 15 10 78 14 68 5z
m-88 -15 c0 -5 -4 -10 -9 -10 -6 0 -13 5 -16 10 -3 6 1 10 9 10 9 0 16 -4 16
-10z m3400 -50 c0 -5 -4 -10 -10 -10 -5 0 -10 5 -10 10 0 6 5 10 10 10 6 0 10
-4 10 -10z m-3175 -20 c-27 -12 -35 -12 -35 0 0 6 12 10 28 9 24 0 25 -1 7 -9z
m-35 -40 c0 -5 -6 -11 -12 -11 -7 -1 -22 -3 -33 -5 -112 -20 -148 -25 -153
-20 -3 3 -3 8 0 11 4 4 123 25 191 34 4 1 7 -3 7 -9z m-63 -46 c-3 -3 -12 -4
-19 -1 -8 3 -5 6 6 6 11 1 17 -2 13 -5z m323 -4 c12 -7 8 -10 -15 -10 -16 0
-47 -3 -68 -6 -32 -6 -36 -4 -31 10 7 18 88 23 114 6z m-445 -10 c-28 -12 -65
-12 -65 0 0 6 19 10 43 9 32 0 37 -2 22 -9z m82 4 c-3 -3 -12 -4 -19 -1 -8 3
-5 6 6 6 11 1 17 -2 13 -5z m83 -13 c-43 -13 -104 -21 -94 -11 9 9 37 14 89
17 28 2 29 1 5 -6z m385 -39 c-3 -3 -11 0 -18 7 -9 10 -8 11 6 5 10 -3 15 -9
12 -12z m-68 2 c-3 -3 -12 -4 -19 -1 -8 3 -5 6 6 6 11 1 17 -2 13 -5z m-112
-19 c-51 -19 -65 -18 -41 0 11 8 34 15 50 15 30 -1 30 -1 -9 -15z m-302 -12
c-13 -2 -35 -2 -50 0 -16 2 -5 4 22 4 28 0 40 -2 28 -4z m9 -129 c-20 -9 -43
-12 -60 -7 l-27 7 35 7 c19 3 46 7 60 7 23 0 22 -1 -8 -14z m2323 -18 c-32
-14 -99 -10 -89 5 3 5 31 9 62 9 56 -1 56 -1 27 -14z m-657 -93 c-10 -2 -26
-2 -35 0 -10 3 -2 5 17 5 19 0 27 -2 18 -5z m411 -23 c-12 -12 -32 -20 -44
-19 -11 1 -27 0 -35 -3 -8 -3 -34 -11 -58 -19 -24 -7 -46 -17 -49 -22 -4 -6 1
-8 11 -4 10 4 31 7 47 7 17 0 28 4 25 9 -6 10 26 21 62 21 13 0 20 -4 17 -10
-3 -5 2 -10 12 -11 15 0 14 -2 -5 -12 -19 -8 -25 -8 -33 4 -7 11 -9 11 -9 -3
0 -10 5 -18 11 -18 5 0 7 -4 4 -10 -3 -5 -11 -10 -16 -10 -6 0 -7 5 -4 10 3 6
1 10 -4 10 -6 0 -11 -4 -11 -10 0 -15 -48 -24 -63 -12 -7 6 -37 9 -67 7 -36
-3 -50 -1 -40 5 8 5 11 10 6 10 -5 0 -18 -8 -28 -17 -11 -9 -26 -18 -35 -19
-9 -2 -28 -5 -42 -9 l-26 -6 25 21 c14 11 45 27 70 37 25 9 52 22 60 29 29 24
141 55 229 63 8 0 4 -7 -10 -19z m-314 0 c8 -13 -6 -18 -61 -25 -27 -3 -56 -8
-65 -11 -12 -3 -16 2 -16 19 0 22 3 23 68 24 38 0 72 -3 74 -7z m1648 -4 c3 3
15 -1 27 -9 18 -13 19 -15 5 -21 -26 -10 -95 -7 -95 4 0 6 5 10 10 10 6 0 9 3
9 8 -3 18 2 22 20 13 10 -6 21 -8 24 -5z m-3280 -3 c-7 -2 -19 -2 -25 0 -7 3
-2 5 12 5 14 0 19 -2 13 -5z m262 -3 c17 -7 24 -7 20 0 -8 13 16 13 50 0 37
-14 26 -35 -21 -37 -103 -4 -306 -2 -345 3 -46 7 -56 10 -47 20 8 7 33 7 101
-2 37 -4 66 -3 80 4 12 7 47 13 77 15 30 2 56 4 57 5 1 1 13 -2 28 -8z m1405
0 c0 -5 -4 -10 -10 -10 -5 0 -10 5 -10 10 0 6 5 10 10 10 6 0 10 -4 10 -10z
m846 -30 c15 -6 40 -22 56 -35 27 -23 28 -25 8 -25 -12 0 -19 -4 -15 -9 3 -5
32 -8 65 -7 43 3 60 0 60 -9 0 -20 -55 -39 -78 -26 -11 6 -22 8 -25 5 -3 -3
-12 -2 -19 2 -7 5 -22 9 -33 11 -83 9 -112 12 -127 12 -10 1 -18 6 -18 12 0 6
9 8 20 4 11 -3 20 -4 20 -2 0 3 -28 15 -62 28 l-63 23 35 8 c19 4 45 4 58 1
13 -3 22 -1 22 6 0 14 60 14 96 1z m-516 -10 c0 -5 -9 -10 -20 -10 -11 0 -20
5 -20 10 0 6 9 10 20 10 11 0 20 -4 20 -10z m-2086 -15 c-4 -10 -10 -12 -18
-6 -6 5 -27 11 -46 14 -27 3 -23 4 17 5 43 2 51 -1 47 -13z m2426 -38 c0 -5
-7 -6 -16 -3 -9 3 -18 6 -20 6 -2 0 -4 7 -4 15 0 13 3 13 20 3 11 -7 20 -17
20 -21z m-1966 -3 c26 -10 18 -24 -14 -24 -20 0 -30 5 -30 15 0 16 17 19 44 9z
m-62 -11 c-10 -4 -9 -9 5 -19 16 -13 13 -14 -33 -12 -27 1 -56 -2 -63 -7 -8
-4 -33 -9 -57 -11 -41 -2 -43 -1 -34 17 8 13 22 19 48 20 20 0 55 4 77 8 47
10 77 12 57 4z m1918 -23 c3 -1 -6 -6 -19 -11 -13 -5 -32 -7 -42 -4 -11 4 -19
2 -19 -4 0 -7 -24 -11 -60 -11 -72 0 -80 16 -12 25 26 4 51 8 56 9 9 2 87 -1
96 -4z m-1830 -22 c0 -10 -19 -9 -45 2 -16 7 -14 8 12 7 18 -1 33 -5 33 -9z
m589 -4 c10 -3 11 -7 2 -18 -8 -9 -44 -17 -99 -21 -50 -4 -105 -15 -130 -27
-23 -10 -47 -16 -51 -13 -14 8 -1 42 17 49 64 23 83 28 132 35 51 7 96 5 129
-5z m-529 -9 c10 -12 9 -16 -4 -21 -14 -5 -46 16 -46 30 0 12 38 5 50 -9z
m1547 1 c-4 -13 -107 -20 -107 -7 0 5 -10 7 -22 4 -19 -4 -20 -3 -8 6 20 15
142 12 137 -3z m-1678 -9 c-9 -7 -16 -16 -17 -22 0 -5 -6 -11 -12 -13 -8 -3
-10 3 -5 18 5 15 4 20 -4 16 -6 -4 -19 -2 -28 3 -14 8 -7 10 32 10 41 0 47 -2
34 -12z m-176 -33 c-7 -19 -23 -7 -23 18 0 17 3 18 14 8 8 -6 12 -18 9 -26z
m1567 30 c0 -5 -47 -26 -87 -38 -41 -13 -24 9 20 26 44 17 67 22 67 12z
m-1450 -25 c0 -5 -7 -9 -15 -9 -15 0 -20 12 -9 23 8 8 24 -1 24 -14z m1693 5
c45 -3 103 -4 130 -4 29 1 56 -5 70 -15 21 -16 20 -16 -23 -10 -43 5 -189 10
-200 5 -3 -1 -16 -4 -30 -6 -13 -3 -29 -9 -34 -14 -6 -6 -26 -9 -45 -9 -22 1
-28 3 -16 6 30 7 40 21 13 18 -13 -1 -34 -3 -46 -4 -15 -1 -26 -9 -29 -21 -6
-22 -19 -27 -25 -9 -3 9 -14 9 -42 -1 -27 -9 -34 -15 -25 -21 7 -4 18 -5 24
-3 5 3 1 -2 -9 -10 -11 -9 -23 -16 -28 -16 -4 0 -8 -8 -8 -19 0 -11 -9 -21
-22 -25 -35 -9 -58 -7 -58 5 0 5 5 7 10 4 6 -3 10 -4 10 -1 0 2 3 13 6 23 4
13 3 14 -3 5 -6 -7 -17 -10 -27 -6 -16 6 -14 10 11 29 l28 23 -30 -4 -30 -5
29 17 c28 15 30 15 42 0 7 -10 15 -13 18 -7 3 5 1 11 -6 13 -18 6 128 50 185
56 26 2 50 9 53 13 3 5 10 7 15 3 6 -3 47 -8 92 -10z m461 -14 c33 0 57 -2 55
-5 -8 -8 -159 -13 -164 -5 -8 13 9 21 30 16 11 -3 47 -6 79 -6z m-1649 -40
c-3 -5 -11 -10 -16 -10 -6 0 -7 5 -4 10 3 6 11 10 16 10 6 0 7 -4 4 -10z m-55
-10 c0 -5 -7 -7 -15 -4 -8 4 -15 8 -15 10 0 2 7 4 15 4 8 0 15 -4 15 -10z
m1338 1 c18 -1 6 -18 -18 -24 -11 -3 -18 -1 -14 4 9 15 -14 10 -30 -7 -9 -8
-16 -11 -16 -6 0 5 -13 8 -30 7 -38 -2 -41 22 -2 27 23 3 67 3 110 -1z m271
-28 c-15 -24 -66 -46 -75 -31 -4 6 -22 7 -43 3 -39 -7 -66 -25 -38 -25 9 0 17
-4 17 -10 0 -11 -11 -13 -34 -4 -9 3 -13 11 -9 18 4 6 -1 5 -10 -3 -11 -9 -31
-12 -58 -8 -66 9 -68 24 -3 34 22 3 46 12 55 20 25 22 122 35 126 18 2 -5 -12
-10 -31 -10 -19 0 -38 -4 -42 -8 -4 -4 18 -7 48 -7 49 0 58 3 73 26 20 31 44
19 24 -13z m361 33 c0 -2 -8 -10 -17 -17 -16 -13 -17 -12 -4 4 13 16 21 21 21
13z m135 -6 c3 -5 -1 -10 -10 -10 -9 0 -13 5 -10 10 3 6 8 10 10 10 2 0 7 -4
10 -10z m115 -20 c0 -5 -4 -10 -9 -10 -6 0 -13 5 -16 10 -3 6 1 10 9 10 9 0
16 -4 16 -10z m-530 -8 c0 -14 -11 -21 -26 -15 -8 3 -11 9 -8 14 7 11 34 12
34 1z m493 -11 c5 -1 5 -6 2 -11 -4 -6 -15 -8 -25 -5 -10 3 -32 8 -50 10 -18
2 -35 6 -38 10 -5 4 43 3 111 -4z m81 -20 c4 -5 -3 -7 -14 -4 -23 6 -26 13 -6
13 8 0 17 -4 20 -9z m-1584 -16 c7 -9 8 -15 2 -15 -5 0 -12 7 -16 15 -3 8 -4
15 -2 15 2 0 9 -7 16 -15z m620 11 c0 -2 -11 -6 -25 -8 -14 -3 -25 -1 -25 3 0
5 11 9 25 9 14 0 25 -2 25 -4z m-1982 -24 c2 -7 -3 -12 -12 -12 -9 0 -16 7
-16 16 0 17 22 14 28 -4z m2552 3 c0 -2 -9 -9 -20 -15 -16 -9 -20 -8 -20 5 0
8 9 15 20 15 11 0 20 -2 20 -5z m-2123 -31 c46 -14 83 -30 83 -36 0 -7 5 -6
14 1 12 10 17 8 26 -9 14 -27 10 -32 -29 -34 -19 0 -31 -6 -31 -14 0 -8 -6
-12 -13 -9 -7 2 -39 10 -72 17 -47 10 -60 10 -63 0 -4 -10 -6 -10 -12 0 -4 7
-19 13 -34 13 -28 0 -35 11 -11 21 8 3 15 0 15 -7 0 -9 2 -9 8 -1 9 15 38 19
82 11 131 -23 140 -10 11 16 -77 16 -98 28 -87 46 10 15 20 14 113 -15z m493
16 c-19 -13 -30 -13 -30 0 0 6 10 10 23 10 18 0 19 -2 7 -10z m770 -22 c-53
-25 -130 -36 -130 -19 0 6 3 11 8 11 4 1 30 7 57 15 28 7 64 14 80 13 29 0 28
-1 -15 -20z m120 8 c0 -8 -14 -16 -32 -19 -43 -6 -46 -2 -11 16 37 19 43 20
43 3z m198 -1 c-2 -5 -32 -10 -68 -10 -36 0 -77 -4 -92 -9 -25 -7 -28 -6 -28
14 0 21 3 21 95 18 57 -2 94 -7 93 -13z m1167 -5 c-17 -19 -17 -20 1 -20 17 0
17 -1 2 -16 -20 -20 -83 -12 -92 12 -4 12 -2 15 9 11 8 -4 17 -2 20 3 5 8 40
22 74 29 2 1 -4 -8 -14 -19z m-2986 6 c-15 -13 -49 -25 -49 -17 0 5 8 12 18
14 24 6 36 8 31 3z m892 -24 c8 -21 5 -25 -24 -35 -17 -7 -65 -29 -106 -50
-40 -21 -75 -36 -78 -34 -5 5 107 77 119 77 4 0 8 6 8 14 0 8 6 16 13 19 6 2
4 3 -5 2 -21 -4 -22 1 -7 18 6 7 25 12 42 12 22 0 32 -6 38 -23z m1074 7 c-4
-5 3 -9 15 -9 12 0 18 5 15 10 -8 12 13 12 40 -1 19 -9 19 -9 -1 -5 -17 3 -20
-1 -17 -15 4 -16 0 -19 -25 -19 -17 0 -33 -4 -37 -9 -3 -6 -13 -10 -23 -9 -40
1 -200 -14 -232 -22 -33 -7 -33 -8 -7 -9 16 -1 26 -5 22 -10 -3 -6 -24 -8 -48
-7 -23 2 -47 0 -54 -6 -6 -5 -26 -8 -45 -6 l-32 3 27 28 c15 15 36 28 45 28 9
1 28 2 42 3 97 7 96 7 75 16 -19 7 -19 8 6 18 14 6 47 10 73 10 26 -1 51 3 54
9 4 6 16 7 26 3 24 -8 66 -1 66 12 0 5 5 6 10 3 6 -4 8 -11 5 -16z m805 11
c12 -8 9 -10 -12 -10 -16 0 -28 5 -28 10 0 13 20 13 40 0z m-1999 -23 c-5 -5
-18 -7 -28 -3 -14 6 -15 9 -4 16 19 11 46 1 32 -13z m-866 -6 c-3 -6 -16 -11
-28 -11 -20 0 -63 -20 -44 -20 8 0 -71 -70 -79 -70 -2 0 -1 7 2 15 4 8 2 15
-3 15 -5 0 -10 6 -10 14 0 15 40 35 117 58 49 15 55 15 45 -1z m-180 0 c9 -16
-61 -44 -81 -33 -16 9 -16 10 4 21 17 9 21 8 25 -7 4 -14 6 -14 12 6 7 22 29
30 40 13z m1065 -21 c-20 -13 -33 -13 -25 0 3 6 14 10 23 10 15 0 15 -2 2 -10z
m-800 -35 c0 -8 -9 -23 -20 -32 -11 -10 -20 -23 -20 -29 0 -12 57 -25 62 -14
2 3 28 18 59 34 51 25 61 27 110 19 l54 -9 -55 -14 c-30 -7 -75 -22 -100 -33
-25 -11 -55 -20 -67 -20 -13 0 -23 -4 -23 -8 0 -5 7 -9 15 -9 22 0 18 -18 -5
-25 -22 -7 -130 32 -130 47 0 5 -6 6 -12 2 -8 -5 -7 -1 2 10 10 13 23 17 49
12 30 -5 33 -3 20 9 -12 12 -23 12 -71 0 -50 -11 -59 -11 -70 2 -10 12 -9 17
7 26 66 39 195 60 195 32z m614 7 c3 -5 -9 -21 -26 -35 -16 -15 -28 -20 -24
-12 3 9 0 15 -9 15 -13 0 -13 3 -3 20 13 20 52 27 62 12z m1528 -26 c-83 -45
-92 -48 -92 -31 0 8 6 15 13 15 6 0 35 11 62 24 76 37 89 30 17 -8z m140 12
c-33 -7 -42 -13 -38 -25 4 -9 1 -23 -6 -31 -11 -14 -10 -15 7 -7 22 10 344 7
360 -3 5 -4 -15 -10 -45 -13 -64 -7 -371 -9 -352 -2 6 3 12 9 12 15 0 6 -7 7
-16 4 -8 -3 -25 -1 -36 5 -14 7 -18 8 -14 0 4 -6 -10 -19 -31 -30 -21 -11 -51
-32 -66 -46 l-28 -27 7 29 c10 42 58 87 114 107 28 10 52 21 55 25 2 5 30 8
62 9 l58 0 -43 -10z m-485 -23 c0 -10 -11 -15 -34 -15 -42 0 -42 7 0 19 17 5
32 10 33 10 0 1 1 -6 1 -14z m233 -39 c0 -8 -11 -38 -25 -67 -13 -29 -27 -77
-31 -106 -8 -69 -29 -65 -29 6 0 32 -5 55 -14 60 -9 6 -7 10 10 14 13 4 20 9
17 12 -3 4 -17 1 -29 -6 -13 -7 -42 -14 -64 -17 -22 -2 -42 -8 -45 -11 -13
-19 -39 -17 -65 5 -16 13 -26 26 -24 29 3 2 53 6 112 8 86 3 111 8 127 22 12
11 18 25 16 32 -3 7 3 17 12 22 24 14 32 13 32 -3z m-745 -6 c3 -6 -1 -7 -9
-4 -18 7 -21 14 -7 14 6 0 13 -4 16 -10z m1685 0 c0 -5 -4 -10 -10 -10 -5 0
-10 5 -10 10 0 6 5 10 10 10 6 0 10 -4 10 -10z m-790 -18 c0 -10 -66 -72 -77
-72 -5 0 -25 -14 -46 -31 -35 -29 -57 -31 -57 -6 0 8 3 8 11 0 7 -7 20 -1 44
24 37 38 106 92 118 93 4 0 7 -4 7 -8z m494 -28 c33 -13 14 -24 -39 -24 -59 0
-75 16 -22 23 17 2 35 5 39 5 3 1 13 -1 22 -4z m-1672 -44 c43 -46 46 -63 19
-104 -11 -16 -17 -35 -14 -43 3 -7 -7 -25 -22 -39 l-28 -25 7 27 c4 15 15 38
25 50 39 50 -16 146 -82 143 -31 -2 -31 -2 -4 -6 15 -2 28 -10 29 -16 0 -7 2
-16 2 -22 1 -5 7 -20 14 -32 16 -29 15 -55 -2 -78 -11 -16 -16 -17 -29 -6 -12
9 -21 10 -37 1 -27 -14 -57 -5 -65 22 -5 14 -10 17 -18 9 -16 -16 -25 -14 -30
7 -3 9 -5 4 -6 -13 -1 -16 -5 -37 -11 -45 -7 -11 -11 -9 -19 13 -20 52 39 159
104 187 11 5 44 9 74 9 51 1 57 -2 93 -39z m1348 28 c0 -11 -28 -10 -35 1 -3
6 4 9 15 8 11 -1 20 -5 20 -9z m60 -4 c0 -2 -9 -4 -20 -4 -11 0 -20 4 -20 9 0
5 9 7 20 4 11 -3 20 -7 20 -9z m57 -10 c-3 -3 -12 -4 -19 -1 -8 3 -5 6 6 6 11
1 17 -2 13 -5z m-377 -65 c-12 -16 -25 -28 -27 -25 -8 8 25 56 38 56 6 0 1
-14 -11 -31z m-1911 -15 c-13 -16 -39 -19 -39 -4 0 12 32 30 43 23 4 -3 3 -11
-4 -19z m1501 16 c0 -10 -98 -32 -111 -24 -18 11 24 29 71 30 22 1 40 -2 40
-6z m-214 -15 c-23 -17 -36 -19 -36 -6 0 11 18 19 40 20 11 0 10 -3 -4 -14z
m1257 -5 c-3 -11 -9 -20 -14 -20 -5 0 -9 9 -9 20 0 11 6 20 14 20 9 0 12 -7 9
-20z m107 10 c0 -5 -4 -10 -10 -10 -5 0 -10 5 -10 10 0 6 5 10 10 10 6 0 10
-4 10 -10z m-2300 -9 c0 -5 -24 -12 -52 -17 -29 -4 -47 -9 -40 -11 6 -3 10 -9
6 -14 -8 -14 -24 -11 -24 6 0 18 -21 20 -38 3 -6 -6 -15 -9 -18 -5 -4 4 13 16
37 27 45 20 129 27 129 11z m1330 -5 c0 -24 -55 -39 -115 -31 -59 7 -80 21
-43 29 86 19 158 20 158 2z m1185 -2 c-16 -9 -50 -18 -75 -19 -66 -4 -130 -16
-136 -26 -3 -5 -15 -4 -26 2 -20 11 -19 12 18 26 61 23 104 31 179 32 70 1 70
1 40 -15z m-1465 -35 c0 -5 -9 -9 -20 -9 -17 0 -19 2 -8 14 13 14 28 12 28 -5z
m638 -20 c-19 -13 -28 -11 -28 5 0 9 7 12 21 9 16 -4 17 -8 7 -14z m335 -6
c-7 -2 -21 -2 -30 0 -10 3 -4 5 12 5 17 0 24 -2 18 -5z m-1919 -9 c19 -7 21
-24 4 -24 -7 0 -40 -11 -73 -25 -48 -19 -78 -25 -146 -25 -56 0 -91 5 -104 13
-16 12 -7 15 71 20 68 5 176 27 231 46 1 1 8 -2 17 -5z m1251 -16 c6 -6 5 -12
-5 -18 -10 -7 -18 -5 -26 5 -6 8 -17 15 -23 15 -7 0 -9 5 -6 10 7 11 43 4 60
-12z m-785 -8 c0 -11 -7 -20 -15 -20 -27 0 -18 30 13 39 1 1 2 -8 2 -19z m536
9 c20 -6 36 -21 46 -42 15 -30 14 -35 -4 -71 -13 -25 -32 -43 -55 -53 -33 -13
-38 -13 -62 5 -17 12 -27 31 -29 51 -3 31 -4 32 -17 14 -8 -10 -15 -26 -15
-36 0 -10 -5 -15 -10 -12 -11 7 -3 78 11 106 9 18 60 45 87 46 9 1 31 -3 48
-8z m942 -11 c8 -10 -1 -13 -39 -14 -75 0 -65 14 17 25 6 0 16 -5 22 -11z
m-138 -8 c0 -5 -2 -10 -4 -10 -3 0 -8 5 -11 10 -3 6 -1 10 4 10 6 0 11 -4 11
-10z m-1721 -34 c10 -11 9 -16 -3 -23 -12 -7 -8 -15 22 -48 20 -23 43 -51 50
-63 12 -21 11 -22 -5 -13 -24 12 -79 71 -68 71 5 0 0 7 -11 15 -10 8 -14 15
-9 15 6 0 3 5 -5 10 -10 6 -11 10 -2 10 6 0 12 5 12 10 0 6 -7 10 -15 10 -8 0
-15 -4 -15 -10 0 -9 -105 -43 -172 -55 -20 -4 -44 -2 -54 3 -16 9 -12 11 21
17 22 4 76 20 120 35 91 33 118 36 134 16z m1641 4 c0 -5 -4 -10 -9 -10 -6 0
-13 5 -16 10 -3 6 1 10 9 10 9 0 16 -4 16 -10z m-1568 -35 c5 -39 -6 -34 -16
8 -3 15 -2 27 3 27 5 0 11 -16 13 -35z m-304 8 c-10 -2 -26 -2 -35 0 -10 3 -2
5 17 5 19 0 27 -2 18 -5z m149 -59 c-3 -3 -12 -4 -19 -1 -8 3 -5 6 6 6 11 1
17 -2 13 -5z m418 -4 c-3 -5 -24 -10 -45 -10 -21 0 -42 5 -45 10 -4 6 13 10
45 10 32 0 49 -4 45 -10z m300 -6 c-67 -18 -86 -18 -61 1 11 9 39 15 65 14
l46 -1 -50 -14z m867 9 c-6 -2 -10 -9 -7 -13 3 -5 1 -11 -5 -15 -5 -3 -10 0
-10 8 0 17 10 27 24 26 6 0 5 -3 -2 -6z m133 -3 c3 -5 1 -10 -4 -10 -6 0 -11
5 -11 10 0 6 2 10 4 10 3 0 8 -4 11 -10z m-1685 -9 c0 -5 3 -16 6 -25 7 -20
-22 -21 -81 -5 -35 10 -37 12 -19 20 12 4 33 6 48 5 14 -2 26 1 26 5 0 5 5 9
10 9 6 0 10 -4 10 -9z m170 -46 c0 -5 -5 -3 -10 5 -5 8 -10 20 -10 25 0 6 5 3
10 -5 5 -8 10 -19 10 -25z m162 20 c0 -14 -29 -31 -38 -22 -9 8 16 39 28 35 5
-2 10 -8 10 -13z m458 5 c0 -5 -4 -10 -9 -10 -5 0 -18 -3 -28 -7 -16 -6 -16
-5 -4 10 15 19 41 23 41 7z m305 4 c13 -5 14 -8 3 -15 -7 -5 -21 -9 -32 -9
-15 0 -16 3 -6 15 14 17 13 17 35 9z m-1040 -14 c3 -5 1 -10 -4 -10 -6 0 -11
5 -11 10 0 6 2 10 4 10 3 0 8 -4 11 -10z m1369 -16 c3 -8 2 -12 -4 -9 -6 3
-10 10 -10 16 0 14 7 11 14 -7z m-578 -26 c4 -7 3 -10 -1 -5 -5 4 -18 1 -29
-7 -59 -38 -138 -51 -308 -51 -123 0 -170 3 -180 13 -10 10 11 12 117 9 129
-3 266 15 313 42 24 15 79 13 88 -1z m-681 -27 c-6 -5 -25 10 -25 20 0 5 6 4
14 -3 8 -7 12 -15 11 -17z m-205 -161 c0 -5 -2 -10 -4 -10 -3 0 -8 5 -11 10
-3 6 -1 10 4 10 6 0 11 -4 11 -10z"/>
<path d="M3583 3376 c9 -10 17 -22 17 -27 0 -5 14 -9 30 -9 30 0 30 1 13 19
-10 11 -31 23 -48 27 -28 7 -29 7 -12 -10z"/>
<path d="M3574 3316 c11 -9 24 -16 30 -16 12 0 7 5 -24 19 -24 11 -24 11 -6
-3z"/>
<path d="M3470 3306 c0 -2 7 -7 16 -10 8 -3 12 -2 9 4 -6 10 -25 14 -25 6z"/>
<path d="M3669 3246 c26 -26 32 -41 29 -60 -3 -14 -1 -26 3 -26 15 0 10 74 -7
98 -8 12 -25 22 -37 22 -19 0 -18 -3 12 -34z"/>
<path d="M3720 3173 c0 -12 5 -25 10 -28 13 -8 13 15 0 35 -8 12 -10 11 -10
-7z"/>
<path d="M3346 3087 c3 -10 9 -15 12 -12 3 3 0 11 -7 18 -10 9 -11 8 -5 -6z"/>
<path d="M3370 3070 c0 -5 5 -10 10 -10 6 0 10 5 10 10 0 6 -4 10 -10 10 -5 0
-10 -4 -10 -10z"/>
<path d="M3380 3041 c0 -5 5 -13 10 -16 6 -3 10 -2 10 4 0 5 -4 13 -10 16 -5
3 -10 2 -10 -4z"/>
<path d="M3476 2955 c4 -8 11 -15 16 -15 6 0 5 6 -2 15 -7 8 -14 15 -16 15 -2
0 -1 -7 2 -15z"/>
<path d="M3518 2943 c6 -2 18 -2 25 0 6 3 1 5 -13 5 -14 0 -19 -2 -12 -5z"/>
<path d="M2100 3230 c-8 -5 -10 -10 -5 -10 6 0 17 5 25 10 8 5 11 10 5 10 -5
0 -17 -5 -25 -10z"/>
<path d="M2083 3193 c0 -9 4 -10 14 -2 7 6 13 12 13 14 0 1 -6 2 -13 2 -8 0
-14 -6 -14 -14z"/>
<path d="M2420 3186 c0 -2 7 -9 15 -16 13 -11 14 -10 9 4 -5 14 -24 23 -24 12z"/>
<path d="M2461 3158 c-1 -16 48 -63 56 -54 8 8 -18 46 -32 46 -7 0 -16 6 -18
13 -4 7 -6 6 -6 -5z"/>
<path d="M2076 3115 c-11 -8 -18 -17 -15 -19 2 -3 15 4 29 14 14 11 21 20 15
19 -5 0 -19 -6 -29 -14z"/>
<path d="M2440 3121 c0 -5 7 -15 17 -22 15 -13 15 -12 4 9 -12 23 -21 28 -21
13z"/>
<path d="M2540 3073 c0 -4 5 -15 10 -23 8 -13 10 -13 10 2 0 9 -4 20 -10 23
-5 3 -10 3 -10 -2z"/>
<path d="M2536 3014 c-3 -8 -2 -13 3 -10 5 3 12 -6 15 -19 4 -14 11 -23 16
-20 10 6 -8 65 -20 65 -4 0 -11 -7 -14 -16z"/>
<path d="M2097 2890 c3 -10 12 -25 21 -32 13 -11 12 -8 -2 20 -19 36 -27 41
-19 12z"/>
<path d="M2537 2819 c-10 -22 -40 -61 -65 -88 -46 -48 -67 -58 -177 -85 -11
-2 9 -2 45 1 85 7 142 46 188 128 18 32 31 64 30 71 -2 6 -11 -6 -21 -27z"/>
<path d="M2363 2829 c-18 -5 -33 -12 -33 -15 0 -9 53 5 65 17 10 10 11 10 -32
-2z"/>
<path d="M2165 2660 c4 -6 11 -8 16 -5 14 9 11 15 -7 15 -8 0 -12 -5 -9 -10z"/>
<path d="M3206 2746 c-22 -7 -51 -27 -68 -47 -16 -19 -42 -50 -58 -69 -17 -19
-30 -38 -30 -42 0 -19 18 -3 60 53 44 58 84 89 125 96 24 4 46 23 25 22 -8 -1
-32 -7 -54 -13z"/>
<path d="M3209 2703 c-13 -16 -12 -17 4 -4 16 13 21 21 13 21 -2 0 -10 -8 -17
-17z"/>
<path d="M3563 2677 c0 -7 -4 -20 -8 -29 -4 -11 -3 -18 5 -18 6 0 9 -4 6 -9
-3 -5 0 -11 8 -14 27 -10 55 -89 49 -135 -5 -36 -3 -42 11 -36 9 3 16 11 17
18 0 6 2 21 3 34 2 12 -1 22 -5 22 -4 0 -15 26 -24 58 -9 31 -21 69 -26 84
-11 28 -35 44 -36 25z"/>
<path d="M3621 2643 c7 -10 15 -20 16 -22 2 -2 3 3 3 11 0 9 -7 19 -16 22 -15
6 -15 4 -3 -11z"/>
<path d="M3118 2593 c-10 -2 -18 -14 -18 -25 0 -12 -6 -29 -14 -37 -19 -22
-30 -61 -17 -61 6 0 11 11 11 24 0 24 22 51 33 40 3 -3 13 8 21 25 23 43 23
44 -16 34z"/>
<path d="M3675 2540 c3 -5 8 -10 11 -10 2 0 4 5 4 10 0 6 -5 10 -11 10 -5 0
-7 -4 -4 -10z"/>
<path d="M3020 2516 c0 -2 -7 -39 -15 -82 -15 -77 -15 -79 11 -143 43 -108 61
-112 23 -5 -17 49 -20 73 -15 147 3 48 4 87 1 87 -3 0 -5 -2 -5 -4z"/>
<path d="M3550 2449 c0 -5 5 -7 10 -4 6 3 10 8 10 11 0 2 -4 4 -10 4 -5 0 -10
-5 -10 -11z"/>
<path d="M3637 2413 c-9 -2 -15 -8 -12 -13 3 -5 -2 -28 -11 -52 -9 -24 -17
-55 -19 -70 -1 -16 -10 -37 -20 -48 -26 -29 -14 -25 23 8 30 27 56 77 48 90
-2 4 -1 26 4 50 4 23 7 41 6 41 0 -1 -9 -3 -19 -6z"/>
<path d="M3055 2365 c8 -54 31 -115 45 -115 5 0 2 16 -6 35 -12 30 -21 72 -23
113 -1 6 -6 12 -12 12 -8 0 -9 -15 -4 -45z"/>
<path d="M3535 2250 c-3 -5 -1 -10 4 -10 6 0 11 5 11 10 0 6 -2 10 -4 10 -3 0
-8 -4 -11 -10z"/>
<path d="M3498 2217 c-16 -6 -28 -15 -28 -19 0 -7 67 16 79 27 8 8 -23 3 -51
-8z"/>
<path d="M3060 2191 c0 -5 7 -15 17 -22 15 -13 15 -12 4 9 -12 23 -21 28 -21
13z"/>
<path d="M3218 2153 c6 -2 18 -2 25 0 6 3 1 5 -13 5 -14 0 -19 -2 -12 -5z"/>
<path d="M3288 2143 c12 -2 32 -2 45 0 12 2 2 4 -23 4 -25 0 -35 -2 -22 -4z"/>
<path d="M3465 2130 c-3 -5 -1 -10 4 -10 6 0 11 5 11 10 0 6 -2 10 -4 10 -3 0
-8 -4 -11 -10z"/>
<path d="M3440 2122 c0 -6 -24 -15 -52 -21 l-53 -10 48 3 c48 4 78 19 64 33
-4 3 -7 1 -7 -5z"/>
<path d="M3308 2083 c7 -3 16 -2 19 1 4 3 -2 6 -13 5 -11 0 -14 -3 -6 -6z"/>
<path d="M1375 2530 c-3 -5 -1 -10 4 -10 6 0 11 5 11 10 0 6 -2 10 -4 10 -3 0
-8 -4 -11 -10z"/>
<path d="M2140 2486 c0 -2 7 -7 16 -10 8 -3 12 -2 9 4 -6 10 -25 14 -25 6z"/>
<path d="M2361 2270 c14 -31 19 -36 19 -24 0 6 -7 19 -16 30 -14 18 -14 18 -3
-6z"/>
<path d="M1450 2210 c12 -22 55 -56 123 -95 67 -38 59 -15 -10 28 -32 20 -70
47 -85 61 -32 31 -43 33 -28 6z"/>
<path d="M1896 2023 c-6 -14 -5 -15 5 -6 7 7 10 15 7 18 -3 3 -9 -2 -12 -12z"/>
<path d="M2265 1420 c-3 -5 -1 -10 4 -10 6 0 11 5 11 10 0 6 -2 10 -4 10 -3 0
-8 -4 -11 -10z"/>
<path d="M2125 1400 c3 -5 10 -10 16 -10 5 0 9 5 9 10 0 6 -7 10 -16 10 -8 0
-12 -4 -9 -10z"/>
<path d="M2220 1401 c0 -17 18 -21 24 -6 3 9 0 15 -9 15 -8 0 -15 -4 -15 -9z"/>
<path d="M2556 1175 c-3 -8 -1 -15 4 -15 6 0 10 7 10 15 0 8 -2 15 -4 15 -2 0
-6 -7 -10 -15z"/>
<path d="M858 1073 c7 -3 16 -2 19 1 4 3 -2 6 -13 5 -11 0 -14 -3 -6 -6z"/>
<path d="M2560 1040 c0 -5 5 -10 10 -10 6 0 10 5 10 10 0 6 -4 10 -10 10 -5 0
-10 -4 -10 -10z"/>
<path d="M518 923 c7 -3 16 -2 19 1 4 3 -2 6 -13 5 -11 0 -14 -3 -6 -6z"/>
<path d="M2813 970 c-30 -12 -29 -15 8 -16 17 -1 25 2 19 6 -9 6 -9 9 1 13 8
3 10 5 4 6 -5 0 -20 -4 -32 -9z"/>
<path d="M565 3760 c-21 -22 -36 -42 -32 -46 5 -5 87 72 87 83 0 12 -21 -2
-55 -37z"/>
<path d="M647 3749 c-44 -39 -55 -55 -47 -64 7 -9 8 -15 1 -20 -28 -17 -71
-159 -71 -232 0 -56 9 -34 19 46 10 75 53 175 96 219 l22 24 -7 -44 c-4 -24
-15 -57 -24 -75 -9 -17 -21 -58 -26 -90 -12 -74 -12 -86 0 -78 6 3 10 22 10
41 0 33 30 107 48 118 5 3 9 19 10 36 0 16 4 35 8 42 4 7 8 22 9 35 0 13 16
36 35 53 19 16 31 29 27 30 -14 0 -67 -33 -67 -42 0 -4 -5 -8 -12 -8 -6 0 1
14 17 30 47 49 13 34 -48 -21z"/>
<path d="M880 3775 c-14 -8 -20 -14 -14 -15 5 0 19 7 30 15 24 18 16 19 -16 0z"/>
<path d="M938 3724 c-27 -8 -48 -18 -48 -23 0 -5 -18 -11 -40 -15 -42 -7 -52
-19 -23 -30 10 -4 28 1 44 13 15 11 39 23 53 27 14 3 23 10 20 15 -3 5 2 9 11
9 9 0 13 -4 10 -10 -4 -6 2 -7 17 -1 23 8 66 7 143 -3 53 -8 25 10 -30 18 -92
15 -112 15 -157 0z"/>
<path d="M408 3684 c-10 -19 -18 -45 -18 -58 0 -13 -4 -36 -9 -52 -14 -42 -20
-114 -11 -114 4 0 10 19 13 43 8 64 23 127 40 175 19 51 9 55 -15 6z"/>
<path d="M461 3694 c-27 -35 -29 -67 -3 -38 16 17 36 64 27 64 -2 0 -13 -12
-24 -26z"/>
<path d="M915 3671 c-27 -11 -46 -20 -41 -20 5 -1 3 -8 -4 -16 -15 -18 -17
-19 50 5 30 10 55 22 55 27 0 14 132 5 164 -12 17 -8 31 -12 31 -7 0 15 -65
33 -135 37 -53 4 -82 0 -120 -14z"/>
<path d="M715 3642 c-11 -15 -20 -31 -21 -37 0 -5 -8 -33 -16 -62 -14 -42 -14
-57 -4 -87 14 -40 28 -38 20 3 -6 28 25 117 55 160 16 22 16 28 5 39 -17 16
-16 16 -39 -16z"/>
<path d="M1386 3635 c9 -14 21 -25 27 -25 6 0 0 11 -13 25 -13 14 -25 25 -27
25 -2 0 4 -11 13 -25z"/>
<path d="M945 3630 c-22 -11 -29 -17 -15 -14 38 10 87 32 70 33 -8 0 -33 -8
-55 -19z"/>
<path d="M1336 3615 c9 -14 19 -24 21 -21 7 7 -16 46 -28 46 -5 0 -2 -11 7
-25z"/>
<path d="M809 3608 c-12 -23 -12 -23 10 -4 23 21 26 26 11 26 -5 0 -15 -10
-21 -22z"/>
<path d="M1265 3590 c11 -14 31 -38 45 -54 17 -19 21 -30 13 -33 -9 -3 -6 -15
10 -41 34 -55 47 -90 47 -123 0 -17 4 -28 9 -24 5 3 12 -5 14 -17 2 -13 5 0 6
28 1 38 -3 53 -14 58 -8 3 -15 14 -15 25 0 25 -49 129 -71 151 -8 8 -26 24
-40 35 l-24 20 20 -25z m132 -242 c-3 -8 -6 -5 -6 6 -1 11 2 17 5 13 3 -3 4
-12 1 -19z"/>
<path d="M948 3593 c6 -2 18 -2 25 0 6 3 1 5 -13 5 -14 0 -19 -2 -12 -5z"/>
<path d="M1175 3570 c17 -11 36 -18 43 -15 6 2 12 -2 12 -11 0 -12 3 -13 14
-2 12 11 9 16 -22 30 -20 9 -46 17 -57 17 -16 1 -15 -3 10 -19z"/>
<path d="M783 3563 c-3 -10 -8 -22 -11 -27 -3 -5 0 -6 5 -3 11 7 25 47 17 47
-3 0 -7 -8 -11 -17z"/>
<path d="M839 3553 l-24 -28 28 24 c25 23 32 31 24 31 -2 0 -14 -12 -28 -27z"/>
<path d="M1029 3571 c-1 -3 -2 -13 -3 -21 0 -8 -14 -21 -31 -29 -47 -21 -64
-41 -76 -83 -13 -49 -6 -72 32 -98 34 -25 124 -39 117 -19 -2 7 -18 14 -35 15
-34 2 -74 20 -85 38 -17 25 -8 73 18 97 32 30 109 32 172 4 67 -31 55 -46 -31
-39 -69 6 -75 5 -101 -19 -20 -19 -26 -32 -21 -44 7 -17 8 -17 15 2 7 19 7 19
18 -2 7 -12 26 -23 45 -27 50 -9 79 -48 102 -136 l12 -45 8 38 c13 67 -43 157
-99 161 -34 1 -34 26 -1 26 31 0 110 -70 119 -105 4 -14 10 -25 15 -25 12 0 9
33 -4 42 -17 12 3 20 23 9 11 -6 23 -26 26 -46 4 -19 11 -35 15 -35 10 0 -17
110 -33 129 -8 12 -8 13 2 7 29 -18 9 26 -30 64 -23 22 -38 40 -33 40 26 0
-39 31 -72 34 -39 4 -98 24 -75 25 7 1 10 6 7 11 -3 6 -1 10 4 10 6 0 11 -4
11 -10 0 -5 6 -7 14 -4 21 8 9 31 -20 37 -13 2 -25 1 -25 -2z m134 -165 c19 0
21 -5 8 -24 -6 -11 -15 -8 -37 13 -22 20 -24 25 -9 19 11 -4 28 -7 38 -8z m47
-7 c0 -6 7 -9 15 -5 17 6 18 4 9 -18 -3 -9 -12 -16 -18 -16 -18 0 -35 21 -29
36 6 17 23 19 23 3z"/>
<path d="M900 3555 c-8 -9 -8 -15 -2 -15 12 0 26 19 19 26 -2 2 -10 -2 -17
-11z"/>
<path d="M1406 3557 c3 -10 9 -15 12 -12 3 3 0 11 -7 18 -10 9 -11 8 -5 -6z"/>
<path d="M860 3485 c-6 -8 -13 -31 -15 -52 -1 -21 0 -26 2 -10 2 15 8 27 12
27 5 0 11 11 13 25 6 29 5 30 -12 10z"/>
<path d="M740 3449 c0 -17 4 -28 10 -24 6 3 10 -1 10 -10 0 -34 33 -114 56
-136 26 -24 34 -50 9 -29 -9 7 -18 10 -21 7 -6 -5 87 -68 118 -80 10 -3 20 -2
23 2 2 5 -6 12 -20 15 -25 6 -36 36 -13 36 7 0 -7 11 -32 24 -56 29 -87 74
-95 134 -10 78 -15 92 -30 92 -10 0 -15 -10 -15 -31z"/>
<path d="M1015 3470 c-16 -7 -17 -9 -3 -9 9 -1 20 4 23 9 7 11 7 11 -20 0z"/>
<path d="M395 3440 c-4 -6 -3 -16 3 -22 6 -6 12 -6 17 2 4 6 3 16 -3 22 -6 6
-12 6 -17 -2z"/>
<path d="M1301 3357 c21 -33 39 -68 39 -78 0 -10 5 -21 10 -24 6 -3 10 3 10
15 0 30 -62 138 -82 143 -11 3 -4 -13 23 -56z"/>
<path d="M465 3370 c-7 -11 33 -155 40 -148 3 2 0 20 -5 39 -6 18 -10 53 -10
76 0 41 -11 55 -25 33z"/>
<path d="M876 3357 c3 -10 9 -15 12 -12 3 3 0 11 -7 18 -10 9 -11 8 -5 -6z"/>
<path d="M850 3352 c0 -5 10 -17 22 -28 l21 -19 -18 28 c-18 28 -25 33 -25 19z"/>
<path d="M692 3318 c5 -15 28 -23 28 -10 0 5 -7 13 -16 16 -10 4 -14 1 -12 -6z"/>
<path d="M927 3301 c-18 -6 -18 -8 -2 -21 9 -7 29 -13 45 -13 17 0 27 -5 23
-10 -4 -7 1 -8 13 -3 10 4 27 9 38 12 36 7 29 14 -15 14 -25 0 -53 6 -64 14
-11 7 -28 10 -38 7z"/>
<path d="M420 3280 c0 -25 33 -104 57 -136 13 -17 23 -34 23 -38 0 -13 67 -76
74 -69 3 3 6 1 6 -5 0 -11 -13 -16 -32 -13 -5 0 -8 -4 -8 -9 0 -13 27 -13 35
1 4 6 14 8 23 4 14 -5 14 -3 -1 13 -9 10 -17 24 -17 30 0 7 -6 12 -13 12 -18
0 -50 45 -99 138 -46 88 -48 90 -48 72z"/>
<path d="M724 3255 c9 -20 27 -46 41 -57 14 -11 25 -28 25 -39 0 -27 48 -46
130 -52 81 -7 78 -6 59 -17 -8 -5 -51 -10 -96 -12 -75 -3 -84 -1 -149 34 -60
31 -70 34 -71 19 -2 -19 82 -75 130 -87 51 -12 39 -24 -25 -24 l-63 -1 36 -19
c20 -11 49 -21 64 -24 29 -5 140 18 166 35 24 15 -8 29 -42 17 -15 -5 -42 -8
-61 -6 l-33 4 30 8 c17 4 47 12 67 17 34 9 88 47 88 63 0 3 -10 4 -22 1 -26
-6 -61 13 -40 22 28 11 8 22 -40 22 -35 -1 -67 6 -93 19 -46 23 -95 68 -95 88
0 7 -5 16 -11 19 -5 4 -3 -10 5 -30z"/>
<path d="M1106 3245 c-3 -8 -1 -15 4 -15 6 0 10 7 10 15 0 8 -2 15 -4 15 -2 0
-6 -7 -10 -15z"/>
<path d="M1045 3230 c-11 -5 -33 -9 -50 -10 -29 -2 -29 -2 -5 -9 22 -7 80 11
80 24 0 6 1 6 -25 -5z"/>
<path d="M1101 3204 c0 -11 3 -14 6 -6 3 7 2 16 -1 19 -3 4 -6 -2 -5 -13z"/>
<path d="M510 3204 c0 -11 38 -74 45 -74 2 0 -5 17 -17 38 -27 46 -28 48 -28
36z"/>
<path d="M1386 3183 c-6 -14 -5 -15 5 -6 7 7 10 15 7 18 -3 3 -9 -2 -12 -12z"/>
<path d="M420 3181 c0 -6 4 -13 10 -16 6 -3 7 1 4 9 -7 18 -14 21 -14 7z"/>
<path d="M1273 3173 c-3 -10 -12 -25 -18 -33 -7 -8 -16 -26 -20 -40 l-7 -25
21 24 c11 13 21 25 21 25 0 1 4 16 9 34 10 33 5 45 -6 15z"/>
<path d="M1204 3145 c-9 -20 -20 -38 -25 -41 -8 -4 -14 25 -10 48 0 4 -6 5
-14 2 -8 -4 -15 -13 -15 -20 0 -8 -9 -34 -21 -57 -12 -23 -15 -36 -8 -29 18
17 27 15 34 -8 8 -26 21 -18 44 28 19 37 43 112 36 112 -2 0 -12 -16 -21 -35z"/>
<path d="M575 3135 c22 -38 53 -65 74 -64 13 0 14 2 1 6 -8 3 -32 24 -54 47
-33 35 -36 37 -21 11z"/>
<path d="M1415 3034 c-38 -70 -42 -95 -6 -45 20 28 55 111 46 111 -2 0 -20
-30 -40 -66z"/>
<path d="M1213 3058 c-24 -32 -24 -41 0 -19 15 14 27 26 27 28 0 8 -19 2 -27
-9z"/>
<path d="M645 3040 c6 -10 2 -12 -13 -8 -19 5 -20 3 -12 -12 13 -24 17 -26 60
-34 34 -7 34 -7 10 6 -14 8 -25 22 -25 33 0 10 -6 20 -14 23 -9 3 -11 0 -6 -8z"/>
<path d="M1030 3015 c-13 -14 -29 -25 -37 -25 -7 0 -13 -4 -13 -9 0 -5 -20
-15 -44 -22 -25 -7 -42 -17 -39 -23 4 -5 1 -6 -6 -2 -7 5 -54 5 -104 1 -90 -8
-91 -8 -57 -21 63 -23 196 -14 186 12 -3 8 -1 14 4 14 6 0 10 -5 10 -11 0 -6
5 -7 13 -2 6 4 18 8 24 9 32 5 102 38 107 50 7 18 2 18 -35 -2 -17 -8 -33 -13
-36 -10 -3 3 6 10 20 17 14 6 28 20 30 30 7 24 5 24 -23 -6z"/>
<path d="M1325 3029 c-4 -6 -5 -12 -2 -15 2 -3 7 2 10 11 7 17 1 20 -8 4z"/>
<path d="M1274 3015 c3 -20 13 -28 26 -20 8 5 8 11 -1 21 -15 18 -28 18 -25
-1z"/>
<path d="M1132 2998 c-7 -7 -12 -15 -12 -20 0 -12 28 2 34 18 7 17 -6 18 -22
2z"/>
<path d="M1350 2969 c0 -5 -24 -33 -52 -62 -29 -28 -44 -44 -32 -34 11 9 24
17 29 17 4 0 16 10 26 22 11 11 19 18 19 13 0 -4 7 -2 15 5 17 14 20 50 5 50
-5 0 -10 -5 -10 -11z"/>
<path d="M675 2930 c3 -5 8 -10 11 -10 2 0 4 5 4 10 0 6 -5 10 -11 10 -5 0 -7
-4 -4 -10z"/>
<path d="M620 2921 c0 -6 -10 -11 -22 -11 l-22 0 20 -14 c26 -18 74 -18 50 0
-9 6 -13 13 -10 16 3 4 1 9 -5 13 -6 3 -11 1 -11 -4z"/>
<path d="M515 2890 c3 -5 14 -10 23 -10 15 0 15 2 2 10 -20 13 -33 13 -25 0z"/>
<path d="M1265 2834 l-40 -36 50 33 c63 41 61 39 44 39 -8 -1 -32 -17 -54 -36z"/>
<path d="M748 2853 c7 -3 16 -2 19 1 4 3 -2 6 -13 5 -11 0 -14 -3 -6 -6z"/>
<path d="M900 2828 c-27 -10 -25 -19 3 -14 12 3 37 5 55 5 17 1 32 5 32 9 0
10 -63 10 -90 0z"/>
<path d="M843 2823 c-12 -2 -24 -11 -27 -19 -4 -11 -2 -12 13 -5 10 6 21 8 23
5 3 -3 8 2 11 11 4 8 5 14 4 14 -1 -1 -12 -4 -24 -6z"/>
<path d="M1205 2821 c-3 -5 -1 -12 4 -15 5 -3 11 1 15 9 6 16 -9 21 -19 6z"/>
<path d="M1175 2790 c3 -5 1 -10 -6 -10 -7 0 -10 -2 -7 -5 8 -9 38 6 32 16 -3
5 -10 9 -15 9 -6 0 -7 -4 -4 -10z"/>
<path d="M100 2507 c0 -25 2 -28 15 -17 13 10 54 13 123 8 15 -2 15 -10 0 -28
-10 -11 -9 -11 6 0 18 14 19 13 13 -3 -4 -10 -3 -16 2 -12 11 6 43 -54 35 -66
-3 -5 0 -9 7 -9 7 0 21 -8 32 -17 19 -17 19 -17 12 7 -8 27 -32 61 -87 124
-32 37 -37 39 -96 41 l-62 2 0 -30z"/>
<path d="M150 2461 c0 -6 4 -12 8 -15 5 -3 9 1 9 9 0 8 -4 15 -9 15 -4 0 -8
-4 -8 -9z"/>
<path d="M118 2443 c7 -3 16 -2 19 1 4 3 -2 6 -13 5 -11 0 -14 -3 -6 -6z"/>
<path d="M244 2415 c11 -8 24 -15 30 -15 5 0 1 7 -10 15 -10 8 -23 14 -29 14
-5 0 -1 -6 9 -14z"/>
<path d="M100 2371 c0 -17 4 -18 31 -11 37 11 74 -1 89 -29 6 -12 16 -20 22
-18 17 3 39 -49 33 -76 -4 -14 -19 -40 -35 -58 -25 -31 -32 -34 -84 -34 -46 0
-56 -3 -56 -17 0 -14 7 -16 37 -12 89 11 109 23 132 78 11 28 21 59 21 69 0
58 -81 127 -150 127 -33 0 -40 -3 -40 -19z"/>
<path d="M820 2366 c0 -15 24 -28 34 -19 7 7 -13 33 -25 33 -5 0 -9 -6 -9 -14z"/>
<path d="M882 2358 c3 -7 12 -14 21 -16 12 -2 15 1 11 12 -7 19 -38 22 -32 4z"/>
<path d="M735 2350 c4 -6 -4 -19 -17 -30 -18 -16 -20 -19 -6 -20 9 0 22 -2 30
-3 7 -2 10 -2 6 0 -12 7 -9 31 4 35 13 5 2 28 -13 28 -6 0 -7 -5 -4 -10z"/>
<path d="M930 2349 c0 -5 5 -7 10 -4 6 3 10 8 10 11 0 2 -4 4 -10 4 -5 0 -10
-5 -10 -11z"/>
<path d="M175 2340 c27 -12 43 -12 25 0 -8 5 -22 9 -30 9 -10 0 -8 -3 5 -9z"/>
<path d="M693 2343 c-21 -8 -15 -22 7 -16 11 3 20 9 20 14 0 10 -8 10 -27 2z"/>
<path d="M962 2338 c6 -18 28 -21 28 -4 0 9 -7 16 -16 16 -9 0 -14 -5 -12 -12z"/>
<path d="M770 2325 c-8 -9 -8 -15 -2 -15 12 0 26 19 19 26 -2 2 -10 -2 -17
-11z"/>
<path d="M804 2329 c-8 -14 18 -31 30 -19 9 9 0 30 -14 30 -5 0 -12 -5 -16
-11z"/>
<path d="M860 2321 c0 -14 5 -19 15 -14 17 6 15 25 -3 31 -7 2 -12 -5 -12 -17z"/>
<path d="M330 2319 c0 -5 5 -7 10 -4 6 3 10 8 10 11 0 2 -4 4 -10 4 -5 0 -10
-5 -10 -11z"/>
<path d="M100 2293 c0 -21 3 -24 12 -15 18 18 56 14 68 -7 21 -41 -28 -82 -69
-57 -7 5 -11 -1 -11 -13 0 -17 6 -21 35 -21 43 0 85 37 85 74 0 33 -43 66 -86
66 -30 0 -34 -3 -34 -27z"/>
<path d="M917 2314 c-8 -8 1 -24 14 -24 5 0 9 7 9 15 0 15 -12 20 -23 9z"/>
<path d="M330 2289 c0 -5 5 -7 10 -4 6 3 10 8 10 11 0 2 -4 4 -10 4 -5 0 -10
-5 -10 -11z"/>
<path d="M590 2285 c-10 -12 -9 -16 3 -21 17 -6 37 2 37 16 0 15 -29 19 -40 5z"/>
<path d="M782 2288 c5 -15 28 -18 29 -3 0 6 -7 12 -17 13 -10 3 -15 -1 -12
-10z"/>
<path d="M960 2281 c0 -11 5 -23 10 -26 6 -3 10 3 10 14 0 11 -4 23 -10 26 -5
3 -10 -3 -10 -14z"/>
<path d="M658 2247 c-17 -23 -27 -33 -24 -21 5 18 2 21 -24 21 -20 0 -30 -5
-30 -15 0 -9 -8 -24 -17 -35 -17 -19 -17 -19 5 -13 12 4 22 3 22 -1 0 -13 39
-53 51 -53 6 0 7 5 3 11 -5 9 6 10 43 5 l50 -6 31 51 c39 62 41 85 4 44 -15
-17 -23 -25 -18 -17 16 23 -8 35 -47 23 -26 -9 -39 -21 -51 -49 -8 -20 -15
-31 -15 -24 -2 33 28 80 58 90 36 13 38 18 10 25 -15 4 -27 -5 -51 -36z"/>
<path d="M870 2269 c0 -18 2 -19 15 -9 8 7 15 16 15 21 0 5 -7 9 -15 9 -9 0
-15 -9 -15 -21z"/>
<path d="M832 2268 c-16 -16 -15 -28 3 -28 8 0 15 9 15 20 0 23 -2 24 -18 8z"/>
<path d="M892 2239 c-7 -12 -12 -22 -10 -23 2 -1 16 -8 33 -15 26 -11 31 -10
43 6 12 16 10 18 -12 21 -15 2 -26 10 -26 18 0 20 -13 17 -28 -7z"/>
<path d="M977 2205 c-9 -19 -12 -37 -7 -40 8 -5 36 63 28 71 -3 2 -12 -12 -21
-31z"/>
<path d="M319 2218 c0 -2 -2 -13 -3 -25 -2 -16 1 -20 9 -13 7 5 15 7 18 3 4
-3 7 -3 7 1 0 8 -29 40 -31 34z"/>
<path d="M795 2190 c-10 -11 -16 -23 -12 -26 10 -10 47 7 57 27 9 16 7 19 -8
19 -10 0 -27 -9 -37 -20z"/>
<path d="M870 2171 c0 -5 6 -11 13 -13 17 -7 38 2 31 13 -7 12 -44 12 -44 0z"/>
<path d="M921 2136 c-17 -18 -19 -26 -10 -31 13 -9 39 20 39 42 0 18 -3 17
-29 -11z"/>
<path d="M1200 2152 c0 -6 5 -14 10 -17 6 -3 10 -15 10 -26 0 -11 4 -18 9 -14
5 3 16 -3 23 -13 7 -10 20 -22 28 -27 8 -5 -5 15 -30 45 -24 30 -45 57 -47 59
-2 2 -3 -1 -3 -7z"/>
<path d="M825 2140 c4 -6 -1 -7 -11 -3 -12 4 -15 2 -12 -8 2 -8 19 -15 37 -17
30 -3 32 -2 21 17 -6 12 -18 21 -26 21 -8 0 -12 -4 -9 -10z"/>
<path d="M675 2125 c30 -25 59 -39 51 -26 -4 6 -22 18 -39 27 -30 14 -31 14
-12 -1z"/>
<path d="M1166 2125 c-3 -8 -1 -15 4 -15 6 0 10 7 10 15 0 8 -2 15 -4 15 -2 0
-6 -7 -10 -15z"/>
<path d="M733 2117 c5 -15 47 -22 47 -8 0 6 -3 11 -7 12 -5 0 -16 2 -26 4 -10
2 -17 -2 -14 -8z"/>
<path d="M793 2073 c9 -2 25 -2 35 0 9 3 1 5 -18 5 -19 0 -27 -2 -17 -5z"/>
<path d="M880 2069 c0 -5 5 -7 10 -4 6 3 10 8 10 11 0 2 -4 4 -10 4 -5 0 -10
-5 -10 -11z"/>
<path d="M566 2062 c-2 -4 12 -6 32 -4 62 6 69 10 20 11 -26 0 -49 -3 -52 -7z"/>
<path d="M1422 1938 c-5 -5 -8 -18 -5 -28 4 -14 11 -16 38 -10 18 4 39 4 46
-1 22 -13 31 -10 17 5 -7 8 -16 12 -19 10 -3 -1 -19 5 -36 16 -20 12 -34 15
-41 8z"/>
<path d="M1360 1929 c0 -5 5 -7 10 -4 6 3 10 8 10 11 0 2 -4 4 -10 4 -5 0 -10
-5 -10 -11z"/>
<path d="M1291 1914 c0 -11 3 -14 6 -6 3 7 2 16 -1 19 -3 4 -6 -2 -5 -13z"/>
<path d="M1367 1893 c-13 -13 -7 -32 8 -27 8 4 15 12 15 20 0 15 -12 19 -23 7z"/>
<path d="M2913 1855 c11 -25 22 -43 24 -41 5 5 -26 74 -36 80 -4 3 1 -15 12
-39z"/>
<path d="M1180 1887 c0 -4 9 -16 20 -27 11 -11 20 -16 20 -12 0 5 -9 17 -20
27 -11 10 -20 15 -20 12z"/>
<path d="M1542 1877 c-16 -19 0 -39 24 -30 10 4 20 14 22 21 2 10 -2 10 -17 2
-24 -12 -41 -13 -21 0 8 5 12 12 9 15 -4 3 -11 0 -17 -8z"/>
<path d="M1442 1838 c-16 -16 -15 -35 1 -35 6 0 12 11 12 24 0 13 0 23 0 23
-1 0 -6 -5 -13 -12z"/>
<path d="M1605 1840 c-11 -4 -26 -5 -34 -2 -9 3 -12 1 -7 -6 9 -14 35 -15 56
-2 20 12 10 19 -15 10z"/>
<path d="M3070 1820 c0 -5 5 -10 10 -10 6 0 10 5 10 10 0 6 -4 10 -10 10 -5 0
-10 -4 -10 -10z"/>
<path d="M3111 1814 c0 -11 3 -14 6 -6 3 7 2 16 -1 19 -3 4 -6 -2 -5 -13z"/>
<path d="M2586 1778 c1 -24 6 -42 10 -40 10 3 6 63 -5 75 -4 4 -6 -12 -5 -35z"/>
<path d="M2771 1800 c14 -31 19 -36 19 -24 0 6 -7 19 -16 30 -14 18 -14 18 -3
-6z"/>
<path d="M1553 1792 c1 -12 6 -18 14 -15 16 6 13 25 -5 31 -6 2 -10 -6 -9 -16z"/>
<path d="M1590 1790 c9 -17 14 -18 30 -8 10 7 16 16 13 21 -3 5 -10 3 -15 -4
-7 -11 -11 -11 -15 -1 -2 6 -9 12 -14 12 -6 0 -5 -8 1 -20z"/>
<path d="M1747 1796 c-12 -9 -14 -16 -8 -21 22 -13 11 -27 -15 -21 -35 9 -22
-9 17 -23 26 -9 30 -8 25 4 -4 12 -1 12 19 3 14 -6 25 -15 25 -20 0 -4 6 -8
13 -8 6 0 24 -14 39 -32 15 -18 28 -28 28 -22 0 14 -43 55 -98 95 -36 25 -41
33 -32 45 15 18 10 18 -13 0z"/>
<path d="M3030 1795 c0 -8 5 -15 11 -15 5 0 8 4 5 9 -4 5 0 12 6 14 8 3 6 6
-4 6 -10 1 -18 -6 -18 -14z"/>
<path d="M1525 1790 c-3 -5 -1 -10 4 -10 6 0 11 5 11 10 0 6 -2 10 -4 10 -3 0
-8 -4 -11 -10z"/>
<path d="M1640 1770 c8 -5 20 -10 25 -10 6 0 3 5 -5 10 -8 5 -19 10 -25 10 -5
0 -3 -5 5 -10z"/>
<path d="M3095 1770 c3 -5 8 -10 11 -10 2 0 4 5 4 10 0 6 -5 10 -11 10 -5 0
-7 -4 -4 -10z"/>
<path d="M1514 1761 c4 -5 1 -12 -4 -14 -6 -3 -5 -4 2 -3 15 3 23 26 8 26 -6
0 -9 -4 -6 -9z"/>
<path d="M3182 1758 c3 -7 14 -14 26 -16 15 -2 25 -14 31 -35 11 -37 14 -14 5
32 -6 26 -11 31 -36 31 -19 0 -28 -4 -26 -12z"/>
<path d="M2976 1735 c-3 -8 -1 -15 4 -15 6 0 10 7 10 15 0 8 -2 15 -4 15 -2 0
-6 -7 -10 -15z"/>
<path d="M3085 1740 c-3 -5 -1 -10 4 -10 6 0 11 5 11 10 0 6 -2 10 -4 10 -3 0
-8 -4 -11 -10z"/>
<path d="M1705 1710 c3 -5 8 -10 11 -10 2 0 4 5 4 10 0 6 -5 10 -11 10 -5 0
-7 -4 -4 -10z"/>
<path d="M3030 1710 c0 -5 5 -10 10 -10 6 0 10 5 10 10 0 6 -4 10 -10 10 -5 0
-10 -4 -10 -10z"/>
<path d="M3174 1705 c-7 -16 12 -45 28 -45 5 0 2 7 -6 16 -21 20 -20 31 2 37
16 4 16 5 -1 6 -10 0 -20 -6 -23 -14z"/>
<path d="M1780 1700 c8 -5 11 -10 5 -10 -5 0 -3 -4 5 -9 15 -11 30 -5 30 10 0
6 -4 8 -9 4 -5 -3 -12 -1 -16 5 -3 5 -12 10 -18 10 -7 0 -6 -4 3 -10z"/>
<path d="M3270 1701 c0 -13 41 -41 59 -41 8 0 0 11 -19 25 -38 28 -40 29 -40
16z"/>
<path d="M1519 1687 c6 -8 7 -18 3 -22 -4 -5 -1 -5 6 -1 10 6 10 11 1 22 -6 8
-14 14 -16 14 -3 0 0 -6 6 -13z"/>
<path d="M1572 1664 c10 -10 20 -15 24 -12 3 4 -5 12 -18 18 -22 12 -22 12 -6
-6z"/>
<path d="M1665 1670 c-4 -6 3 -10 14 -10 25 0 27 6 6 13 -8 4 -17 2 -20 -3z"/>
<path d="M925 1660 c3 -5 8 -10 11 -10 2 0 4 5 4 10 0 6 -5 10 -11 10 -5 0 -7
-4 -4 -10z"/>
<path d="M1988 1653 c7 -3 16 -2 19 1 4 3 -2 6 -13 5 -11 0 -14 -3 -6 -6z"/>
<path d="M3266 1650 c25 -10 33 -21 39 -50 3 -14 -1 -20 -10 -18 -7 2 -14 -1
-14 -7 -1 -5 7 -10 17 -10 12 0 18 10 20 36 3 30 -1 37 -23 47 -14 7 -31 12
-38 11 -7 0 -2 -4 9 -9z"/>
<path d="M1460 1640 c0 -4 10 -10 23 -14 31 -8 39 -7 33 3 -7 11 -56 21 -56
11z"/>
<path d="M1546 1643 c-11 -11 -6 -23 8 -23 8 0 17 4 20 9 7 10 -19 23 -28 14z"/>
<path d="M1605 1640 c-3 -5 1 -10 9 -10 9 0 16 5 16 10 0 6 -4 10 -9 10 -6 0
-13 -4 -16 -10z"/>
<path d="M3175 1640 c3 -5 8 -10 11 -10 2 0 4 5 4 10 0 6 -5 10 -11 10 -5 0
-7 -4 -4 -10z"/>
<path d="M3220 1643 c0 -5 5 -15 10 -23 7 -12 9 -10 7 8 -1 19 -17 33 -17 15z"/>
<path d="M845 1630 c4 -6 11 -8 16 -5 14 9 11 15 -7 15 -8 0 -12 -5 -9 -10z"/>
<path d="M900 1630 c0 -5 7 -10 15 -10 8 0 15 5 15 10 0 6 -7 10 -15 10 -8 0
-15 -4 -15 -10z"/>
<path d="M1658 1628 c9 -9 15 -9 24 0 9 9 7 12 -12 12 -19 0 -21 -3 -12 -12z"/>
<path d="M3340 1630 c-8 -5 -10 -10 -5 -10 6 0 17 5 25 10 8 5 11 10 5 10 -5
0 -17 -5 -25 -10z"/>
<path d="M3116 1617 c3 -10 9 -15 12 -12 3 3 0 11 -7 18 -10 9 -11 8 -5 -6z"/>
<path d="M920 1600 c0 -5 5 -10 10 -10 6 0 10 5 10 10 0 6 -4 10 -10 10 -5 0
-10 -4 -10 -10z"/>
<path d="M972 1584 c11 -24 28 -33 28 -14 0 6 -6 10 -12 10 -10 0 -10 2 0 9
11 6 9 9 -6 13 -18 5 -19 3 -10 -18z"/>
<path d="M1502 1594 c9 -9 21 -13 27 -10 19 12 12 22 -16 24 -25 2 -26 1 -11
-14z"/>
<path d="M1567 1603 c-12 -11 24 -42 41 -36 10 4 13 2 8 -5 -4 -7 -3 -12 2
-12 21 0 20 30 -1 45 -23 16 -40 19 -50 8z"/>
<path d="M1640 1602 c0 -15 22 -20 45 -11 16 6 16 8 3 8 -9 1 -23 4 -32 7 -9
3 -16 2 -16 -4z"/>
<path d="M3200 1595 c0 -8 5 -15 10 -15 6 0 10 7 10 15 0 8 -4 15 -10 15 -5 0
-10 -7 -10 -15z"/>
<path d="M3335 1600 c3 -5 8 -10 11 -10 2 0 4 5 4 10 0 6 -5 10 -11 10 -5 0
-7 -4 -4 -10z"/>
<path d="M845 1590 c-3 -5 1 -10 9 -10 9 0 16 5 16 10 0 6 -4 10 -9 10 -6 0
-13 -4 -16 -10z"/>
<path d="M3128 1583 c7 -3 16 -2 19 1 4 3 -2 6 -13 5 -11 0 -14 -3 -6 -6z"/>
<path d="M940 1565 c0 -8 5 -15 10 -15 6 0 10 7 10 15 0 8 -4 15 -10 15 -5 0
-10 -7 -10 -15z"/>
<path d="M1535 1571 c-3 -5 4 -12 15 -16 11 -3 20 -11 20 -18 0 -8 -3 -8 -12
1 -7 7 -15 12 -19 12 -5 0 -6 -39 -1 -62 4 -15 45 -29 68 -24 40 10 30 76 -12
76 -2 0 -4 -4 -4 -10 0 -5 5 -9 11 -7 14 3 22 -40 9 -48 -6 -3 -7 1 -4 10 5
11 0 18 -13 21 -14 4 -19 12 -16 27 4 23 -31 55 -42 38z m65 -75 c0 -3 -4 -8
-10 -11 -5 -3 -10 -1 -10 4 0 6 5 11 10 11 6 0 10 -2 10 -4z"/>
<path d="M3340 1574 c0 -18 74 -64 104 -64 15 0 25 4 21 10 -3 6 -18 10 -33
10 -27 0 -69 23 -84 44 -5 8 -8 8 -8 0z"/>
<path d="M1501 1554 c0 -11 3 -14 6 -6 3 7 2 16 -1 19 -3 4 -6 -2 -5 -13z"/>
<path d="M3236 1561 c-4 -5 -2 -12 3 -15 5 -4 12 -2 15 3 4 5 2 12 -3 15 -5 4
-12 2 -15 -3z"/>
<path d="M3110 1546 c0 -9 5 -16 10 -16 6 0 10 4 10 9 0 6 -4 13 -10 16 -5 3
-10 -1 -10 -9z"/>
<path d="M860 1544 c0 -7 27 -34 35 -34 3 0 1 9 -5 20 -10 18 -30 28 -30 14z"/>
<path d="M3190 1535 c-18 -21 -3 -32 16 -13 10 9 12 18 6 22 -5 3 -15 -1 -22
-9z"/>
<path d="M3271 1537 c-8 -11 -5 -19 13 -36 l24 -23 7 22 c6 20 -9 50 -25 50
-4 0 -13 -6 -19 -13z"/>
<path d="M3332 1528 c3 -7 12 -14 21 -16 12 -2 15 1 11 12 -7 19 -38 22 -32 4z"/>
<path d="M955 1520 c3 -5 8 -10 11 -10 2 0 4 5 4 10 0 6 -5 10 -11 10 -5 0 -7
-4 -4 -10z"/>
<path d="M1664 1504 c15 -14 31 -22 35 -19 7 7 -39 45 -54 44 -5 0 3 -11 19
-25z"/>
<path d="M3211 1499 c-23 -19 -24 -21 -6 -37 17 -16 17 -16 12 5 -8 35 21 37
54 4 16 -16 29 -24 29 -17 0 11 -51 66 -61 66 -2 -1 -15 -10 -28 -21z"/>
<path d="M1740 1500 c-12 -7 -10 -9 7 -7 12 0 19 5 17 9 -6 10 -6 10 -24 -2z"/>
<path d="M3125 1500 c-8 -13 5 -13 25 0 13 8 13 10 -2 10 -9 0 -20 -4 -23 -10z"/>
<path d="M985 1490 c-3 -5 -2 -10 4 -10 5 0 13 5 16 10 3 6 2 10 -4 10 -5 0
-13 -4 -16 -10z"/>
<path d="M876 1481 c-4 -5 3 -7 14 -4 23 6 26 13 6 13 -8 0 -17 -4 -20 -9z"/>
<path d="M3327 1483 c-12 -11 -8 -23 8 -23 8 0 15 7 15 15 0 16 -12 20 -23 8z"/>
<path d="M945 1470 c3 -5 8 -10 11 -10 2 0 4 5 4 10 0 6 -5 10 -11 10 -5 0 -7
-4 -4 -10z"/>
<path d="M920 1455 c0 -8 4 -15 10 -15 5 0 7 7 4 15 -4 8 -8 15 -10 15 -2 0
-4 -7 -4 -15z"/>
<path d="M1725 1460 c3 -5 23 -10 43 -9 33 1 34 2 12 9 -36 12 -62 12 -55 0z"/>
<path d="M882 1427 c2 -19 8 -33 13 -30 15 5 13 55 -3 61 -8 2 -11 -7 -10 -31z"/>
<path d="M1618 1452 c-25 -5 -22 -17 7 -30 34 -16 35 -15 35 7 0 21 -16 29
-42 23z"/>
<path d="M1715 1430 c-3 -5 -1 -10 4 -10 6 0 11 5 11 10 0 6 -2 10 -4 10 -3 0
-8 -4 -11 -10z"/>
<path d="M3350 1409 c39 -34 109 -73 117 -65 3 2 -10 12 -29 22 -18 9 -48 30
-66 45 -18 16 -38 29 -45 29 -7 -1 4 -14 23 -31z"/>
<path d="M3380 1436 c0 -2 8 -10 18 -17 15 -13 16 -12 3 4 -13 16 -21 21 -21
13z"/>
<path d="M925 1420 c-3 -5 -1 -10 4 -10 6 0 11 5 11 10 0 6 -2 10 -4 10 -3 0
-8 -4 -11 -10z"/>
<path d="M3250 1403 c0 -7 4 -13 9 -13 5 0 11 6 14 13 3 8 -1 14 -9 14 -8 0
-14 -6 -14 -14z"/>
<path d="M940 1375 c0 -14 4 -25 9 -25 4 0 6 11 3 25 -2 14 -6 25 -8 25 -2 0
-4 -11 -4 -25z"/>
<path d="M1620 1392 c0 -5 7 -13 16 -16 10 -4 14 -1 12 6 -5 15 -28 23 -28 10z"/>
<path d="M1676 1393 c-11 -11 -6 -23 9 -23 8 0 15 4 15 9 0 13 -16 22 -24 14z"/>
<path d="M105 1380 c3 -5 8 -10 11 -10 2 0 4 5 4 10 0 6 -5 10 -11 10 -5 0 -7
-4 -4 -10z"/>
<path d="M3470 1370 c46 -25 64 -25 22 0 -18 11 -38 20 -45 20 -6 -1 4 -9 23
-20z"/>
<path d="M896 1358 c8 -27 12 -33 19 -27 7 8 -7 49 -17 49 -5 0 -6 -10 -2 -22z"/>
<path d="M1594 1345 c-4 -9 -2 -21 4 -27 15 -15 44 -1 40 19 -4 23 -36 29 -44
8z"/>
<path d="M1662 1333 c4 -21 33 -25 33 -3 0 8 -8 16 -18 18 -14 3 -18 -1 -15
-15z"/>
<path d="M925 1293 c8 -34 13 -39 25 -27 13 13 1 54 -17 54 -12 0 -13 -7 -8
-27z"/>
<path d="M3250 1306 c0 -2 7 -9 15 -16 13 -11 14 -10 9 4 -5 14 -24 23 -24 12z"/>
<path d="M1633 1293 c-14 -3 -20 -9 -16 -19 7 -18 37 -18 52 -1 10 13 5 29 -8
26 -3 -1 -16 -4 -28 -6z"/>
<path d="M283 1227 c-18 -20 -18 -20 6 -5 13 9 29 14 36 12 7 -3 15 -2 18 3
11 18 -43 9 -60 -10z"/>
<path d="M956 1242 c-5 -9 33 -96 40 -89 2 2 0 23 -4 47 -7 41 -24 61 -36 42z"/>
<path d="M1644 1244 c-7 -3 -10 -13 -7 -22 6 -26 58 -22 58 4 0 19 -27 28 -51
18z"/>
<path d="M435 1230 c-11 -5 -31 -9 -45 -9 -32 -2 -54 -16 -46 -30 5 -7 14 -8
24 -2 9 4 30 11 46 15 27 7 27 6 12 -10 -21 -20 -14 -29 11 -15 10 6 31 16 47
21 28 10 28 11 10 25 -22 16 -31 17 -59 5z"/>
<path d="M1640 1180 c0 -6 8 -10 18 -8 9 2 16 -3 15 -9 -2 -7 0 -13 5 -14 4 0
15 -2 25 -4 12 -2 17 3 17 21 0 21 -4 24 -40 24 -22 0 -40 -5 -40 -10z"/>
<path d="M1470 1166 c0 -9 5 -16 10 -16 6 0 10 4 10 9 0 6 -4 13 -10 16 -5 3
-10 -1 -10 -9z"/>
<path d="M1633 1131 c1 -11 7 -17 14 -14 17 7 17 20 -1 26 -10 4 -14 0 -13
-12z"/>
<path d="M1675 1120 c-14 -23 44 -114 62 -97 3 4 12 2 19 -4 10 -8 18 -7 33 3
16 11 17 16 7 31 -7 9 -15 14 -19 11 -3 -3 -8 4 -12 17 -6 17 -9 19 -16 8 -7
-12 -9 -12 -9 0 0 28 -52 52 -65 31z m60 -50 c3 -5 0 -10 -7 -11 -10 0 -10 -2
0 -6 6 -2 12 -9 12 -14 0 -6 -11 -2 -24 8 -16 12 -20 20 -12 25 15 10 24 10
31 -2z m49 -35 c-7 -18 -20 -19 -30 -3 -4 6 -3 8 4 4 6 -3 13 -2 17 4 9 15 15
12 9 -5z"/>
<path d="M1016 1087 c3 -10 9 -15 12 -12 3 3 0 11 -7 18 -10 9 -11 8 -5 -6z"/>
<path d="M1907 1064 c3 -7 9 -14 14 -14 14 0 10 17 -5 23 -10 4 -13 1 -9 -9z"/>
<path d="M1652 1038 c-8 -8 -8 -15 -1 -24 8 -9 5 -11 -13 -8 -20 5 -21 4 -6
-6 10 -6 29 -28 43 -48 14 -20 25 -31 25 -24 0 6 4 12 10 12 5 0 7 -8 4 -17
-5 -15 -4 -15 4 -4 7 9 7 21 2 31 -5 9 -11 29 -14 44 -5 28 -23 56 -35 56 -4
0 -12 -5 -19 -12z m41 -54 c3 -3 3 -13 0 -21 -5 -12 -7 -12 -14 -1 -15 23 -4
40 14 22z"/>
<path d="M100 1031 c0 -16 46 -66 85 -92 27 -18 26 -17 -5 10 -43 39 -20 41
38 4 40 -26 41 -28 21 -38 -19 -11 -19 -12 -3 -26 11 -9 15 -9 10 -1 -4 7 -2
12 8 12 8 0 18 -5 21 -10 4 -6 11 -8 16 -5 5 4 9 1 9 -4 0 -6 6 -11 14 -11 8
0 58 -40 112 -90 54 -49 102 -90 106 -90 18 0 5 19 -42 63 -29 27 -47 52 -44
60 7 19 -21 40 -58 42 -17 2 -33 7 -37 12 -8 12 -163 128 -190 143 -12 6 -21
8 -21 4 0 -4 -9 1 -20 11 -13 12 -20 14 -20 6z"/>
<path d="M1733 970 c6 -17 27 -45 46 -63 l35 -32 -28 34 c-18 22 -26 43 -23
57 2 14 -2 25 -10 28 -27 11 -31 6 -20 -24z"/>
<path d="M100 920 c0 -13 83 -68 95 -64 6 2 19 -10 30 -26 22 -33 42 -41 26
-11 -29 53 -151 135 -151 101z"/>
<path d="M1850 922 c0 -5 14 -29 31 -55 17 -27 27 -52 23 -59 -5 -10 -4 -10 6
-1 10 9 6 23 -20 67 -30 54 -40 65 -40 48z"/>
<path d="M519 831 c21 -21 61 -45 61 -37 0 3 -12 17 -27 31 -33 29 -63 35 -34
6z"/>
<path d="M100 820 c0 -10 98 -70 115 -70 6 1 1 6 -11 13 -11 7 -36 24 -56 40
-37 29 -48 33 -48 17z"/>
<path d="M310 826 c0 -14 24 -56 33 -56 5 0 7 -7 3 -15 -3 -8 -1 -15 3 -15 5
0 11 6 14 13 3 8 12 3 26 -13 l22 -25 -3 24 c-2 16 -20 37 -50 59 -27 19 -48
31 -48 28z"/>
<path d="M1757 814 c8 -21 31 -25 26 -5 -2 10 -10 18 -18 18 -7 0 -11 -6 -8
-13z"/>
<path d="M270 792 c0 -4 9 -13 21 -20 19 -12 19 -11 9 8 -10 19 -30 28 -30 12z"/>
<path d="M100 773 c0 -23 76 -87 85 -72 4 5 0 18 -9 28 -9 10 -15 20 -14 22 2
2 1 3 -1 2 -2 -1 -17 7 -32 18 -27 19 -29 19 -29 2z"/>
<path d="M561 762 c5 -14 110 -124 114 -120 5 5 -78 104 -99 118 -10 6 -17 7
-15 2z"/>
<path d="M285 740 c10 -11 20 -20 23 -20 3 0 -3 9 -13 20 -10 11 -20 20 -23
20 -3 0 3 -9 13 -20z"/>
<path d="M430 736 c0 -3 17 -25 38 -49 20 -24 44 -54 52 -67 21 -32 53 -68 44
-50 -5 11 79 -62 116 -101 11 -11 181 -120 197 -126 20 -7 -58 61 -97 85 -14
9 -80 70 -147 136 -142 142 -203 193 -203 172z"/>
<path d="M1853 719 c9 -13 21 -34 26 -46 9 -20 31 -41 31 -29 0 18 -35 75 -53
86 -21 13 -21 12 -4 -11z"/>
<path d="M250 719 c0 -5 4 -8 9 -5 5 3 11 -1 15 -9 3 -8 0 -15 -6 -15 -6 0 -3
-9 7 -20 10 -11 24 -20 32 -20 8 0 37 -22 66 -50 50 -48 67 -59 67 -42 0 10
-98 112 -108 112 -5 0 -21 14 -37 30 -30 31 -45 38 -45 19z m45 -39 c3 -5 1
-10 -4 -10 -6 0 -11 5 -11 10 0 6 2 10 4 10 3 0 8 -4 11 -10z"/>
<path d="M100 712 c0 -12 19 -26 26 -19 2 2 -2 10 -11 17 -9 8 -15 8 -15 2z"/>
<path d="M3741 699 c-53 -23 -247 -59 -259 -47 -4 4 -30 3 -58 -3 -27 -5 -61
-12 -75 -14 -34 -4 -87 -37 -69 -43 8 -3 1 -10 -16 -18 -23 -10 -25 -13 -9
-13 11 -1 31 6 43 15 14 10 82 23 180 36 100 12 173 27 202 40 25 12 60 26 79
33 19 6 37 17 39 23 5 16 -5 14 -57 -9z"/>
<path d="M740 701 c0 -5 15 -22 34 -38 18 -15 36 -37 40 -48 3 -11 15 -26 26
-33 24 -15 26 -9 4 12 -9 9 -17 23 -18 32 -1 8 -20 31 -41 50 -42 37 -45 39
-45 25z"/>
<path d="M550 686 c0 -8 14 -21 30 -30 36 -17 39 -8 7 22 -27 26 -37 28 -37 8z"/>
<path d="M263 650 c18 -14 24 -26 20 -38 -6 -14 -4 -15 9 -4 13 10 17 10 22
-3 3 -9 10 -13 16 -10 9 6 -71 75 -86 75 -4 0 5 -9 19 -20z"/>
<path d="M716 646 c6 -15 34 -30 34 -18 0 4 -9 13 -20 19 -16 11 -18 10 -14
-1z"/>
<path d="M100 641 c0 -6 5 -11 11 -11 5 0 7 -6 3 -12 -4 -7 -4 -10 1 -6 4 4
26 -7 49 -24 39 -31 40 -31 16 -4 -33 37 -80 70 -80 57z"/>
<path d="M420 633 c6 -13 7 -23 3 -23 -4 0 36 -43 89 -95 53 -52 102 -95 110
-95 7 0 2 9 -12 20 -19 15 -22 22 -12 28 10 7 8 13 -10 24 -14 9 -41 32 -61
52 -20 20 -37 32 -37 28 0 -4 -19 13 -41 38 -22 25 -35 35 -29 23z"/>
<path d="M620 631 c0 -13 28 -33 41 -29 6 2 0 12 -15 21 -14 10 -26 13 -26 8z"/>
<path d="M840 626 c0 -2 8 -10 18 -17 15 -13 16 -12 3 4 -13 16 -21 21 -21 13z"/>
<path d="M715 535 c33 -30 63 -55 67 -55 15 0 -4 27 -30 42 -15 9 -39 28 -54
42 -15 14 -31 26 -35 26 -4 0 19 -25 52 -55z"/>
<path d="M370 560 c6 -11 14 -20 19 -20 11 0 50 -34 139 -120 172 -167 289
-266 310 -261 1 1 11 -8 22 -19 12 -12 25 -18 30 -15 6 4 13 -1 16 -9 7 -18
49 -22 59 -6 3 6 3 15 -1 21 -4 8 -9 7 -15 -2 -6 -11 -11 -10 -26 3 -10 9 -50
32 -88 51 -54 27 -101 65 -205 164 -217 208 -289 267 -260 213z m515 -420 c3
-6 -1 -7 -9 -4 -18 7 -21 14 -7 14 6 0 13 -4 16 -10z"/>
<path d="M227 539 c7 -26 19 -32 20 -9 1 10 -4 21 -12 23 -9 4 -11 -1 -8 -14z"/>
<path d="M920 515 c14 -15 34 -32 45 -37 16 -9 16 -6 -5 17 -14 15 -34 32 -45
37 -16 9 -16 6 5 -17z"/>
<path d="M360 522 c0 -13 75 -82 89 -82 8 0 -8 20 -33 45 -48 46 -56 51 -56
37z"/>
<path d="M112 508 c8 -7 25 -22 38 -33 l25 -20 -15 20 c-18 24 -42 44 -53 45
-5 0 -2 -6 5 -12z"/>
<path d="M850 515 c0 -8 40 -46 80 -76 19 -14 50 -40 68 -57 17 -16 32 -26 32
-22 0 10 -162 160 -172 160 -5 0 -8 -2 -8 -5z"/>
<path d="M307 479 c7 -9 11 -18 10 -20 -2 -2 16 -21 40 -43 50 -45 58 -35 11
15 -39 40 -81 74 -61 48z"/>
<path d="M103 434 c0 -25 3 -41 7 -34 7 12 40 3 40 -11 0 -12 -17 -11 -23 1
-3 6 -4 5 -3 -2 2 -7 9 -13 17 -13 8 -1 24 -6 37 -13 30 -17 28 -4 -5 24 -15
13 -24 26 -20 30 4 4 19 -3 34 -17 l28 -24 -20 24 c-11 13 -36 36 -56 52 l-36
28 0 -45z"/>
<path d="M800 472 c0 -13 27 -35 39 -30 5 1 -2 11 -15 21 -13 10 -24 14 -24 9z"/>
<path d="M3740 457 c-51 -24 -80 -29 -80 -14 0 12 -147 2 -182 -13 -21 -8 -21
-9 -3 -10 22 -2 -26 -16 -85 -25 -64 -9 -189 -45 -188 -54 2 -19 -3 -24 -12
-11 -5 8 -10 10 -10 4 0 -7 -16 -10 -42 -8 -24 2 -73 5 -110 8 l-67 4 40 -34
c22 -18 48 -36 59 -39 11 -4 20 -10 20 -15 0 -5 8 -11 18 -15 9 -3 42 -28 72
-55 42 -38 60 -48 77 -44 14 4 37 -3 60 -17 32 -18 27 -11 -28 42 -65 62 -129
108 -129 92 0 -5 25 -28 56 -53 37 -29 51 -46 41 -48 -12 -3 -150 99 -192 141
-10 10 23 5 61 -10 13 -5 16 -3 11 10 -9 25 18 21 61 -8 20 -14 55 -30 77 -36
22 -6 64 -22 93 -35 29 -13 59 -24 67 -24 9 0 12 -6 9 -15 -4 -8 -2 -15 3 -15
6 0 24 -14 41 -30 18 -17 37 -30 44 -30 6 0 3 7 -8 15 -17 14 -15 14 20 0 26
-10 74 -15 152 -15 l114 0 0 190 c0 105 -3 190 -7 189 -5 0 -28 -10 -53 -22z
m-180 -97 c-19 -13 -30 -13 -30 0 0 6 10 10 23 10 18 0 19 -2 7 -10z m58 -79
c19 -12 -23 -19 -73 -12 -40 5 -40 5 -10 12 43 10 68 10 83 0z m-121 -7 c-3
-3 -12 -4 -19 -1 -8 3 -5 6 6 6 11 1 17 -2 13 -5z"/>
<path d="M635 450 c3 -5 11 -10 16 -10 6 0 7 5 4 10 -3 6 -11 10 -16 10 -6 0
-7 -4 -4 -10z"/>
<path d="M1225 419 c26 -28 107 -72 93 -50 -5 9 -33 29 -60 43 -41 22 -47 23
-33 7z"/>
<path d="M460 421 c0 -6 4 -13 10 -16 6 -3 7 1 4 9 -7 18 -14 21 -14 7z"/>
<path d="M690 424 c0 -11 190 -151 220 -162 8 -3 20 -10 25 -14 6 -4 24 -19
41 -33 34 -27 54 -32 54 -13 0 6 -3 9 -6 5 -4 -3 -12 -1 -20 6 -7 7 -19 17
-26 22 -7 6 -33 27 -58 46 -25 20 -65 47 -90 59 -25 12 -66 38 -92 56 -27 19
-48 31 -48 28z"/>
<path d="M1127 419 c7 -7 15 -10 18 -7 3 3 -2 9 -12 12 -14 6 -15 5 -6 -5z"/>
<path d="M1310 400 c14 -11 33 -20 42 -20 9 0 19 -8 22 -18 7 -21 45 -48 42
-29 -3 25 -33 56 -59 62 -15 4 -30 11 -33 16 -3 5 -13 9 -22 9 -13 0 -12 -5 8
-20z"/>
<path d="M670 400 c0 -5 10 -15 23 -21 22 -12 22 -12 3 10 -21 23 -26 26 -26
11z"/>
<path d="M2370 400 c-24 -7 -23 -7 13 -15 41 -8 61 0 37 15 -17 11 -16 11 -50
0z"/>
<path d="M3055 400 c-3 -5 1 -10 9 -10 9 0 16 5 16 10 0 6 -4 10 -9 10 -6 0
-13 -4 -16 -10z"/>
<path d="M501 397 c2 -1 27 -20 54 -41 l50 -38 -44 41 c-24 23 -48 41 -54 41
-6 0 -8 -1 -6 -3z"/>
<path d="M2454 388 c-3 -4 13 -8 35 -8 23 0 41 2 41 4 0 8 -71 12 -76 4z"/>
<path d="M2650 396 c0 -2 7 -7 16 -10 8 -3 12 -2 9 4 -6 10 -25 14 -25 6z"/>
<path d="M635 370 c-3 -5 -1 -10 4 -10 6 0 11 5 11 10 0 6 -2 10 -4 10 -3 0
-8 -4 -11 -10z"/>
<path d="M980 365 c0 -8 7 -15 16 -15 14 0 14 3 4 15 -7 8 -14 15 -16 15 -2 0
-4 -7 -4 -15z"/>
<path d="M3130 371 c0 -4 11 -6 25 -3 14 2 25 6 25 8 0 2 -11 4 -25 4 -14 0
-25 -4 -25 -9z"/>
<path d="M1476 355 c4 -8 10 -15 15 -15 4 0 6 7 3 15 -4 8 -10 15 -15 15 -4 0
-6 -7 -3 -15z"/>
<path d="M2725 360 c3 -5 11 -10 16 -10 6 0 7 5 4 10 -3 6 -11 10 -16 10 -6 0
-7 -4 -4 -10z"/>
<path d="M2083 353 c-13 -2 -23 -9 -23 -15 0 -6 10 -8 23 -4 12 3 28 6 35 6 6
0 12 5 12 10 0 10 -8 11 -47 3z"/>
<path d="M2618 353 c7 -3 16 -2 19 1 4 3 -2 6 -13 5 -11 0 -14 -3 -6 -6z"/>
<path d="M2782 348 c3 -14 96 -73 104 -66 2 3 -15 18 -38 34 -67 46 -69 46
-66 32z"/>
<path d="M2560 336 c19 -7 36 -20 38 -30 2 -9 8 -13 13 -10 6 3 18 -1 27 -8
33 -29 45 -32 33 -10 -11 21 -105 72 -130 71 -9 0 0 -6 19 -13z"/>
<path d="M2686 334 c-3 -8 1 -14 9 -14 20 0 28 17 11 23 -8 3 -17 -1 -20 -9z"/>
<path d="M207 333 c-2 -4 9 -21 26 -38 l30 -30 -23 35 c-13 19 -25 36 -26 38
-1 2 -4 0 -7 -5z"/>
<path d="M960 326 c7 -7 13 -7 20 0 6 6 3 10 -10 10 -13 0 -16 -4 -10 -10z"/>
<path d="M1293 328 c0 -7 11 -14 24 -14 22 -2 23 -1 6 12 -23 17 -30 17 -30 2z"/>
<path d="M1990 330 c0 -5 7 -10 15 -10 8 0 15 5 15 10 0 6 -7 10 -15 10 -8 0
-15 -4 -15 -10z"/>
<path d="M100 315 c0 -12 40 -48 46 -42 3 3 3 10 -1 16 -7 13 -45 34 -45 26z"/>
<path d="M405 310 c3 -5 8 -10 11 -10 2 0 4 5 4 10 0 6 -5 10 -11 10 -5 0 -7
-4 -4 -10z"/>
<path d="M950 289 c34 -32 73 -59 85 -59 13 0 -8 20 -48 47 -66 45 -75 48 -37
12z"/>
<path d="M1361 303 c7 -12 15 -20 18 -17 3 2 -3 12 -13 22 -17 16 -18 16 -5
-5z"/>
<path d="M736 302 c56 -47 103 -81 98 -70 -6 15 -86 78 -99 78 -5 0 -5 -4 1
-8z"/>
<path d="M1016 281 c21 -16 56 -45 77 -65 20 -20 44 -36 52 -36 9 0 18 -6 21
-14 3 -8 12 -17 20 -20 51 -19 -91 108 -163 147 -48 25 -51 21 -7 -12z"/>
<path d="M1452 294 c10 -10 20 -16 22 -13 3 3 -5 11 -17 18 -21 13 -21 12 -5
-5z"/>
<path d="M1680 306 c0 -4 158 -108 175 -115 6 -2 -9 14 -33 37 -25 25 -49 39
-57 35 -8 -3 -15 -1 -15 4 0 5 -13 16 -29 26 -29 17 -41 21 -41 13z"/>
<path d="M2260 300 c-11 -7 3 -9 45 -9 48 1 54 3 30 9 -43 11 -58 11 -75 0z"/>
<path d="M2750 290 c6 -11 15 -20 20 -20 4 0 17 -3 27 -6 11 -3 7 4 -12 20
-36 31 -50 33 -35 6z"/>
<path d="M2040 275 c14 -8 30 -14 35 -14 6 0 -1 6 -15 14 -14 8 -29 14 -35 14
-5 0 1 -6 15 -14z"/>
<path d="M2153 283 c9 -2 25 -2 35 0 9 3 1 5 -18 5 -19 0 -27 -2 -17 -5z"/>
<path d="M2420 279 c0 -5 6 -9 14 -9 8 0 22 -3 32 -7 11 -4 15 -3 11 4 -8 13
-57 23 -57 12z"/>
<path d="M270 266 c0 -7 9 -16 20 -19 23 -6 26 3 8 21 -16 16 -28 15 -28 -2z"/>
<path d="M480 266 c0 -2 8 -10 18 -17 15 -13 16 -12 3 4 -13 16 -21 21 -21 13z"/>
<path d="M1134 261 c10 -16 96 -73 95 -64 0 4 -23 23 -51 41 -27 19 -47 29
-44 23z"/>
<path d="M2950 261 c0 -9 24 -21 41 -21 5 0 9 5 9 11 0 6 -7 9 -15 5 -8 -3
-15 -1 -15 4 0 6 -4 10 -10 10 -5 0 -10 -4 -10 -9z"/>
<path d="M1450 252 c0 -5 18 -18 40 -31 22 -12 40 -20 40 -18 0 2 -18 16 -40
31 -22 14 -40 23 -40 18z"/>
<path d="M2288 253 c7 -3 16 -2 19 1 4 3 -2 6 -13 5 -11 0 -14 -3 -6 -6z"/>
<path d="M621 243 c0 -5 14 -19 32 -32 l32 -25 -29 32 c-31 33 -36 37 -35 25z"/>
<path d="M1970 246 c0 -2 7 -6 15 -10 8 -3 15 -1 15 4 0 6 -7 10 -15 10 -8 0
-15 -2 -15 -4z"/>
<path d="M2160 236 c28 -17 50 -21 35 -7 -6 5 -21 12 -35 15 l-25 7 25 -15z"/>
<path d="M2410 246 c0 -3 26 -19 58 -37 31 -18 76 -45 99 -61 23 -15 47 -28
54 -28 21 0 -63 61 -133 96 -67 34 -78 38 -78 30z"/>
<path d="M2838 233 c54 -47 62 -52 62 -45 0 8 -66 62 -76 62 -4 0 2 -8 14 -17z"/>
<path d="M1430 229 c0 -8 11 -26 25 -39 14 -13 25 -18 25 -11 0 8 8 10 23 6
16 -4 14 -1 -8 11 -16 10 -31 15 -32 13 -1 -2 -9 5 -17 16 -12 16 -15 17 -16
4z"/>
<path d="M2108 223 c7 -3 16 -2 19 1 4 3 -2 6 -13 5 -11 0 -14 -3 -6 -6z"/>
<path d="M2990 221 c0 -5 7 -14 15 -21 8 -7 13 -16 10 -20 -3 -5 -1 -11 5 -15
5 -3 10 -1 10 5 0 6 6 8 13 4 6 -4 -1 7 -17 24 -32 34 -36 37 -36 23z"/>
<path d="M850 212 c0 -13 70 -72 85 -72 5 0 -3 12 -20 25 -16 14 -38 33 -47
42 -10 9 -18 12 -18 5z"/>
<path d="M2150 210 c8 -5 21 -10 29 -10 7 0 49 -18 92 -40 50 -25 76 -34 73
-25 -4 8 -10 13 -14 10 -9 -6 -25 13 -25 29 0 5 -9 10 -20 11 -11 1 -44 9 -74
18 -61 19 -83 21 -61 7z"/>
<path d="M707 204 c-10 -10 95 -104 116 -104 12 0 17 4 11 8 -92 78 -122 100
-127 96z"/>
<path d="M1638 170 c77 -49 122 -73 129 -67 2 3 -5 8 -16 12 -11 3 -50 26 -85
51 -36 24 -71 44 -77 44 -7 0 15 -18 49 -40z"/>
<path d="M150 193 c1 -14 24 -39 49 -53 21 -11 23 -10 18 5 -4 9 -7 18 -7 21
0 2 -13 10 -30 19 -16 9 -30 12 -30 8z"/>
<path d="M1895 190 c-3 -5 -2 -10 4 -10 5 0 13 5 16 10 3 6 2 10 -4 10 -5 0
-13 -4 -16 -10z"/>
<path d="M100 146 c0 -40 3 -46 20 -46 18 0 19 3 10 20 -12 22 -1 27 19 8 10
-11 10 -8 3 11 -5 14 -19 31 -30 39 -21 14 -22 13 -22 -32z"/>
<path d="M1245 183 c33 -31 107 -84 111 -80 3 2 -17 20 -43 39 -51 37 -85 58
-68 41z"/>
<path d="M2670 186 c0 -9 65 -66 74 -66 12 0 -33 49 -56 61 -10 5 -18 8 -18 5z"/>
<path d="M230 169 c0 -9 59 -49 73 -49 4 0 2 9 -5 19 -6 10 -18 17 -25 14 -7
-3 -13 -1 -13 5 0 6 6 12 13 15 6 2 0 4 -15 4 -16 0 -28 -4 -28 -8z"/>
<path d="M685 170 c3 -5 11 -10 16 -10 6 0 7 5 4 10 -3 6 -11 10 -16 10 -6 0
-7 -4 -4 -10z"/>
<path d="M1347 157 c33 -38 58 -56 78 -56 16 0 12 6 -20 34 -22 19 -48 36 -58
39 -18 4 -18 4 0 -17z"/>
<path d="M1560 171 c0 -13 84 -71 102 -71 15 0 -34 43 -74 65 -16 9 -28 11
-28 6z"/>
<path d="M1920 176 c0 -2 7 -7 16 -10 8 -3 12 -2 9 4 -6 10 -25 14 -25 6z"/>
<path d="M2095 160 c17 -11 37 -20 45 -20 8 1 -1 9 -20 20 -46 25 -63 25 -25
0z"/>
<path d="M2746 165 c-6 -17 52 -65 79 -65 15 0 11 8 -20 40 -43 44 -50 47 -59
25z"/>
<path d="M580 163 c0 -13 29 -38 35 -31 3 3 -4 13 -15 23 -11 10 -20 13 -20 8z"/>
<path d="M1055 160 c3 -5 8 -10 11 -10 2 0 4 5 4 10 0 6 -5 10 -11 10 -5 0 -7
-4 -4 -10z"/>
<path d="M1890 165 c0 -6 56 -35 67 -35 4 0 -7 9 -25 20 -33 20 -42 24 -42 15z"/>
<path d="M2170 151 c14 -11 21 -21 17 -21 -5 0 -1 -7 7 -16 9 -8 26 -14 38
-12 21 3 19 6 -17 28 -63 39 -72 43 -45 21z"/>
<path d="M2950 150 c46 -39 127 -67 100 -35 -8 10 -21 13 -33 9 -15 -5 -19 -3
-14 9 4 11 2 14 -9 10 -7 -3 -14 1 -14 8 0 7 -3 9 -6 6 -4 -3 -16 -2 -28 4
-17 9 -17 7 4 -11z"/>
<path d="M2421 131 c12 -17 31 -31 42 -31 25 0 11 17 -34 44 l-32 19 24 -32z"/>
<path d="M2480 133 c25 -31 40 -41 40 -25 0 5 -15 19 -32 32 l-33 24 25 -31z"/>
<path d="M550 141 c0 -6 4 -13 10 -16 6 -3 7 1 4 9 -7 18 -14 21 -14 7z"/>
<path d="M3090 141 c0 -5 7 -11 15 -15 8 -3 15 -1 15 3 0 5 -7 11 -15 15 -8 3
-15 1 -15 -3z"/>
<path d="M1545 120 c10 -11 25 -20 34 -20 12 0 9 6 -9 20 -33 26 -48 26 -25 0z"/>
<path d="M1785 120 c3 -5 8 -10 11 -10 2 0 4 5 4 10 0 6 -5 10 -11 10 -5 0 -7
-4 -4 -10z"/>
<path d="M2276 115 c10 -8 24 -14 29 -14 6 0 1 6 -9 14 -11 8 -24 15 -30 15
-5 0 -1 -7 10 -15z"/>
<path d="M2367 123 c-14 -13 -6 -23 19 -23 22 0 25 2 14 15 -14 16 -23 19 -33
8z"/>
<path d="M2910 115 c7 -8 17 -15 22 -15 6 0 5 7 -2 15 -7 8 -17 15 -22 15 -6
0 -5 -7 2 -15z"/>
<path d="M225 110 c3 -5 8 -10 11 -10 2 0 4 5 4 10 0 6 -5 10 -11 10 -5 0 -7
-4 -4 -10z"/>
<path d="M2135 110 c3 -5 16 -10 28 -9 21 0 21 1 2 9 -28 12 -37 12 -30 0z"/>
</g>
</svg>
